<svg xmlns="http://www.w3.org/2000/svg" version="1.1" xmlns:xlink="http://www.w3.org/1999/xlink" xmlns:svgjs="http://svgjs.dev/svgjs" width="2000" height="2250" viewBox="0 0 2000 2250"><g transform="matrix(1,0,0,1,0.0005875000000514774,0)"><svg viewBox="0 0 320 360" data-background-color="#000000" preserveAspectRatio="xMidYMid meet" height="2250" width="2000" xmlns="http://www.w3.org/2000/svg" xmlns:xlink="http://www.w3.org/1999/xlink"><g id="tight-bounds" transform="matrix(1,0,0,1,-0.000046999999995023245,0)"><svg viewBox="0 0 320 360" height="360" width="320"><rect width="320.000141" height="360" fill="url(#3ebf1878-a75e-4915-90bd-15c9af6e6db3)" mask="url(#6b99bb6e-461b-491d-a916-074633b0356a)" data-fill-palette-color="tertiary"></rect><g><svg></svg></g><g><svg viewBox="0 0 320 360" height="360" width="320"><g><path transform="translate(-74.99272,-51.79039) scale(4.65793,4.65793)" d="M20.6 59.9l0.8 1-0.4-1.3c-0.1-0.6-0.8 0.1-0.4 0.3M21.5 59.3c0.3 0.5 0.6 1 0.6 1.5 0 0.7 0.6 1 1.1 1.2-0.7-0.8-1.1-3-1.7-2.7M59.9 16.9c1.7 0 3.3-0.2 5.1 0.2 4.4 1.1 8.1 3.3 10.6 6.4l7 11.2c0.3 2.8 0.9 5.9 0.8 9.3 0.7 0 0.6-1 1.4-1.2-0.8 2-1.2 4.5-1.4 7.4-0.5-1.6 0-4 0.1-5.3-0.7 1.1-1.1 0.3-1.1-0.2 0.1-0.8-0.3-0.7-0.6-1-1.1-1-1.8-2.1-2.6-3.8 0.5-1.3 0.6-3.2-1-4.2-0.5-0.3-1.1-0.8-1.4-1.6-0.4-1.1-1.1-2.4-0.9-4.1 0.1-0.5-1.5 1.1-2.4 0.4-3.9-2.7-7.8-5.8-12.5-8.4-2.5 0-4.3-0.9-5.2-2-0.8-1-0.2-2.3 1-2.4 0.7 0 1.5-0.2 2.1 0.2 0.1-0.4 0.5-0.9 1-0.9M50 14.6l0.2 0.1c1 0.2 1.5 1.6 2.6 1.1 0 0.7 0.1 1.4-0.1 1.9-0.3 0.8-1.2 0.8-1.9 0.8-6.7-0.4-10.6 2.4-14.7 4.8-1.1 0.7-2.3 1.2-3.2 2.1-4.3 4-9 7.7-10.1 15.1l-0.9 8.2c-0.1 0.9-1.1 1.8-0.9 2.9l0.7 4.9c-0.7-0.7-1.1 0.2-0.9 0.6 0.1 0.3 0.5 1.3 1.1 0.4 0.8 1.5 1.6 4.4 2.7 5.7 3.4 4 7.8 7.6 11.4 11.2 0.9-0.2 1.6-0.2 1.8-0.8 0.3 0.6-0.3 1.2-0.8 1.3 1.6 1 3.4 1.9 5.8 2.1 3.1 0.2 6 0.7 8.7 1.4 1.4-0.4 2.8-0.6 4.3-0.7 0.5 0 0.8-0.8 1.4-1l0.1-1c0.6 0.9 0.5-0.3 0.1-0.9 0.7 0.6 0.9 1.1 1.2 1.5 0-0.3 0.8-1.4 0.8-0.1l0.2-1.3c0.3-0.2 0.4 1.1 0.7 0.2 0.3-0.9 0.9-0.2 1.5-0.5-0.2 0.4-0.1 1.2 0.6 0.7l0.8-0.7c0.5 1.2 1.3 0.7 1.7 0.5 4.4-2.8 8.8-6.1 13-9.4l-0.1 1.3 0.5-1.6c0.5 0.5 0.9 0.1 1.1-0.2 0.6-1 1.4-2 2.7-2.9-1.6 4.3-3.5 7.7-5.9 10.5l-1 1.2c0 0.7-0.2 1.6-1 1.7-0.4 0.1-1.2-0.2-1.8 0.4-0.3 0.4 0.7 1.2-0.1 0.6-0.7-0.5-1.4 0-2.2 0.2-0.6 0.2 0.4 0.8 0.6 1.2 0.2 0.4 0.4 0.8 0.3 1.3l-1.1-1.2c-1.3 0.7-2.1 2-3.2 3-0.5 0.4-0.3 1.1-0.3 1.7-0.7 0-1.5-0.2-1.9 0.2-0.3 0.4-0.2 1-0.2 1.6-1-0.1-1.1-1.6-2-1.3-0.9 0.2-1.9 0.3-2.7 0.8 0.6 1.2-1 0.5-0.8 0.7-1.5-0.9-2.8-1.6-4.4-1-3.4-1.1-7.6-0.6-10.7-0.2 0-0.5 0.1-1-0.1-1.1-0.2 0.5-0.8 0.3-0.7 0.3-1.9-1.3-3.8-2.1-5.8-3.2-1.8 0.2-3.5-0.7-4-1.2-1.4-1.3-3-0.6-4.3-0.9-2.8-0.7-3.8-3.6-4.1-5.6-0.2-1-1-1.4-1.3-1.3-1.3-4.2-3.3-8-4.9-11.9-0.4-1-0.3-2-0.3-3.1 0.5 0.2 1 0.1 0.9-0.6-0.5-3.3-1.7-5.8-3-8.2 0.7-3.4 0.8-7.4 2.4-10.4 1.4-2.7 4-4.1 5.8-6.4 0.6-0.8 0.6-1.9 1.2-2.6 2-2 4-4.1 6.2-5.9 1-0.8 2.2 0 3.7-0.3 0.5-1.8 2.5-3.4 4.4-2.9 0.8 0.2 2.4-1.9 2.9-2.1 0.8-0.3 0.4 0.8 0.4 1.5 1.9-1.5 4.5-2.3 6.9-3.2" fill="url(#3ebf1878-a75e-4915-90bd-15c9af6e6db3)" fill-rule="nonzero" stroke="none" stroke-width="1" stroke-linecap="butt" stroke-linejoin="miter" stroke-miterlimit="10" stroke-dasharray="" stroke-dashoffset="0" font-family="none" font-weight="none" font-size="none" text-anchor="none" style="mix-blend-mode: normal" data-fill-palette-color="tertiary"></path></g><g transform="matrix(1,0,0,1,85.05014689225922,90)"><svg viewBox="0 0 149.89970621548156 180" height="180" width="149.89970621548156"><g><svg viewBox="0 0 149.89970621548156 180" height="180" width="149.89970621548156"><g><svg viewBox="0 0 192 230.55415432449104" height="180" width="149.89970621548156"><g transform="matrix(1,0,0,1,0,139.35119318938925)"><svg viewBox="0 0 192 91.20296113510177" height="91.20296113510177" width="192"><g id="textblocktransform"><svg viewBox="0 0 192 91.20296113510177" height="91.20296113510177" width="192" id="textblock"><g><svg viewBox="0 0 192 91.20296113510177" height="91.20296113510177" width="192"><g transform="matrix(1,0,0,1,0,0)"><svg width="192" viewBox="1.9 -38.5 81.05 38.5" height="91.20296113510177" data-palette-color="url(#a9f25830-dc65-4d6c-8415-19b60c69729e)"></svg></g></svg></g></svg></g></svg></g><g transform="matrix(1,0,0,1,44.57095418109773,0)"><svg viewBox="0 0 102.85809163780453 126.04249228871066" height="126.04249228871066" width="102.85809163780453"><g><svg xmlns="http://www.w3.org/2000/svg" xmlns:xlink="http://www.w3.org/1999/xlink" version="1.1" x="0" y="0" viewBox="18.933999999999987 5.1690000000000005 122.133 149.66199999999998" style="enable-background:new 0 0 160 160;" xml:space="preserve" height="126.04249228871066" width="102.85809163780453" class="icon-icon-0" data-fill-palette-color="accent" id="icon-0"></svg></g></svg></g><g></g></svg></g></svg></g></svg></g></svg></g><defs></defs><mask id="c4b9484c-f1a7-4f7b-8947-5087b3ab3a29"><g id="SvgjsG2338"><svg viewBox="0 0 320 360" height="360" width="320"><g><svg></svg></g><g><svg viewBox="0 0 320 360" height="360" width="320"><g><path transform="translate(-74.99272,-51.79039) scale(4.65793,4.65793)" d="M20.6 59.9l0.8 1-0.4-1.3c-0.1-0.6-0.8 0.1-0.4 0.3M21.5 59.3c0.3 0.5 0.6 1 0.6 1.5 0 0.7 0.6 1 1.1 1.2-0.7-0.8-1.1-3-1.7-2.7M59.9 16.9c1.7 0 3.3-0.2 5.1 0.2 4.4 1.1 8.1 3.3 10.6 6.4l7 11.2c0.3 2.8 0.9 5.9 0.8 9.3 0.7 0 0.6-1 1.4-1.2-0.8 2-1.2 4.5-1.4 7.4-0.5-1.6 0-4 0.1-5.3-0.7 1.1-1.1 0.3-1.1-0.2 0.1-0.8-0.3-0.7-0.6-1-1.1-1-1.8-2.1-2.6-3.8 0.5-1.3 0.6-3.2-1-4.2-0.5-0.3-1.1-0.8-1.4-1.6-0.4-1.1-1.1-2.4-0.9-4.1 0.1-0.5-1.5 1.1-2.4 0.4-3.9-2.7-7.8-5.8-12.5-8.4-2.5 0-4.3-0.9-5.2-2-0.8-1-0.2-2.3 1-2.4 0.7 0 1.5-0.2 2.1 0.2 0.1-0.4 0.5-0.9 1-0.9M50 14.6l0.2 0.1c1 0.2 1.5 1.6 2.6 1.1 0 0.7 0.1 1.4-0.1 1.9-0.3 0.8-1.2 0.8-1.9 0.8-6.7-0.4-10.6 2.4-14.7 4.8-1.1 0.7-2.3 1.2-3.2 2.1-4.3 4-9 7.7-10.1 15.1l-0.9 8.2c-0.1 0.9-1.1 1.8-0.9 2.9l0.7 4.9c-0.7-0.7-1.1 0.2-0.9 0.6 0.1 0.3 0.5 1.3 1.1 0.4 0.8 1.5 1.6 4.4 2.7 5.7 3.4 4 7.8 7.6 11.4 11.2 0.9-0.2 1.6-0.2 1.8-0.8 0.3 0.6-0.3 1.2-0.8 1.3 1.6 1 3.4 1.9 5.8 2.1 3.1 0.2 6 0.7 8.7 1.4 1.4-0.4 2.8-0.6 4.3-0.7 0.5 0 0.8-0.8 1.4-1l0.1-1c0.6 0.9 0.5-0.3 0.1-0.9 0.7 0.6 0.9 1.1 1.2 1.5 0-0.3 0.8-1.4 0.8-0.1l0.2-1.3c0.3-0.2 0.4 1.1 0.7 0.2 0.3-0.9 0.9-0.2 1.5-0.5-0.2 0.4-0.1 1.2 0.6 0.7l0.8-0.7c0.5 1.2 1.3 0.7 1.7 0.5 4.4-2.8 8.8-6.1 13-9.4l-0.1 1.3 0.5-1.6c0.5 0.5 0.9 0.1 1.1-0.2 0.6-1 1.4-2 2.7-2.9-1.6 4.3-3.5 7.7-5.9 10.5l-1 1.2c0 0.7-0.2 1.6-1 1.7-0.4 0.1-1.2-0.2-1.8 0.4-0.3 0.4 0.7 1.2-0.1 0.6-0.7-0.5-1.4 0-2.2 0.2-0.6 0.2 0.4 0.8 0.6 1.2 0.2 0.4 0.4 0.8 0.3 1.3l-1.1-1.2c-1.3 0.7-2.1 2-3.2 3-0.5 0.4-0.3 1.1-0.3 1.7-0.7 0-1.5-0.2-1.9 0.2-0.3 0.4-0.2 1-0.2 1.6-1-0.1-1.1-1.6-2-1.3-0.9 0.2-1.9 0.3-2.7 0.8 0.6 1.2-1 0.5-0.8 0.7-1.5-0.9-2.8-1.6-4.4-1-3.4-1.1-7.6-0.6-10.7-0.2 0-0.5 0.1-1-0.1-1.1-0.2 0.5-0.8 0.3-0.7 0.3-1.9-1.3-3.8-2.1-5.8-3.2-1.8 0.2-3.5-0.7-4-1.2-1.4-1.3-3-0.6-4.3-0.9-2.8-0.7-3.8-3.6-4.1-5.6-0.2-1-1-1.4-1.3-1.3-1.3-4.2-3.3-8-4.9-11.9-0.4-1-0.3-2-0.3-3.1 0.5 0.2 1 0.1 0.9-0.6-0.5-3.3-1.7-5.8-3-8.2 0.7-3.4 0.8-7.4 2.4-10.4 1.4-2.7 4-4.1 5.8-6.4 0.6-0.8 0.6-1.9 1.2-2.6 2-2 4-4.1 6.2-5.9 1-0.8 2.2 0 3.7-0.3 0.5-1.8 2.5-3.4 4.4-2.9 0.8 0.2 2.4-1.9 2.9-2.1 0.8-0.3 0.4 0.8 0.4 1.5 1.9-1.5 4.5-2.3 6.9-3.2" fill="black" fill-rule="nonzero" stroke="none" stroke-width="1" stroke-linecap="butt" stroke-linejoin="miter" stroke-miterlimit="10" stroke-dasharray="" stroke-dashoffset="0" font-family="none" font-weight="none" font-size="none" text-anchor="none" style="mix-blend-mode: normal"></path></g><g transform="matrix(1,0,0,1,85.05014689225922,90)"><svg viewBox="0 0 149.89970621548156 180" height="180" width="149.89970621548156"><g><svg viewBox="0 0 149.89970621548156 180" height="180" width="149.89970621548156"><g><svg viewBox="0 0 192 230.55415432449104" height="180" width="149.89970621548156"><g transform="matrix(1,0,0,1,0,139.35119318938925)"><svg viewBox="0 0 192 91.20296113510177" height="91.20296113510177" width="192"><g id="SvgjsG2337"><svg viewBox="0 0 192 91.20296113510177" height="91.20296113510177" width="192" id="SvgjsSvg2336"><g><svg viewBox="0 0 192 91.20296113510177" height="91.20296113510177" width="192"><g transform="matrix(1,0,0,1,0,0)"><svg width="192" viewBox="1.9 -38.5 81.05 38.5" height="91.20296113510177" data-palette-color="url(#a9f25830-dc65-4d6c-8415-19b60c69729e)"><path d="M21.45 0L1.9 0 1.9-1.9Q3.8-1.95 4.98-2.18 6.15-2.4 6.8-3.03 7.45-3.65 7.68-4.73 7.9-5.8 7.9-7.6L7.9-7.6 7.9-30.9Q7.9-32.65 7.73-33.73 7.55-34.8 7.03-35.43 6.5-36.05 5.5-36.27 4.5-36.5 2.9-36.6L2.9-36.6 2.9-38.5 20.45-38.5Q24.95-38.5 28.78-37 32.6-35.5 35.38-32.85 38.15-30.2 39.7-26.55 41.25-22.9 41.25-18.6L41.25-18.6Q41.25-14.5 39.8-11.08 38.35-7.65 35.73-5.2 33.1-2.75 29.45-1.38 25.8 0 21.45 0L21.45 0ZM20.35-36.05L14-36.05Q13.15-36.05 13.15-35.2L13.15-35.2 13.15-8.15Q13.15-2.45 20.6-2.45L20.6-2.45Q27.45-2.45 31.1-6.53 34.75-10.6 34.75-18.5L34.75-18.5Q34.75-22.65 33.75-25.9 32.75-29.15 30.88-31.4 29-33.65 26.35-34.85 23.7-36.05 20.35-36.05L20.35-36.05ZM82.45-38.5L82.95-28.95 80.9-28.95Q80.75-31.1 80.2-32.55 79.65-34 78.62-34.83 77.6-35.65 76.05-36 74.5-36.35 72.35-36.35L72.35-36.35Q70.5-36.35 69.37-36.27 68.25-36.2 67.65-36 67.05-35.8 66.87-35.52 66.7-35.25 66.7-34.8L66.7-34.8 66.7-8.05Q66.7-6.45 66.92-5.3 67.15-4.15 67.82-3.43 68.5-2.7 69.77-2.33 71.05-1.95 73.15-1.9L73.15-1.9 73.15 0 54.25 0 54.25-1.9Q56.35-1.95 57.65-2.33 58.95-2.7 59.62-3.43 60.3-4.15 60.52-5.3 60.75-6.45 60.75-8.05L60.75-8.05 60.75-34.8Q60.75-35.25 60.57-35.52 60.4-35.8 59.87-36 59.35-36.2 58.4-36.27 57.45-36.35 55.85-36.35L55.85-36.35Q53.9-36.35 52.22-36.2 50.55-36.05 49.32-35.33 48.1-34.6 47.35-33.1 46.6-31.6 46.55-28.95L46.55-28.95 44.7-28.95 44.7-38.5 82.45-38.5Z" opacity="1" transform="matrix(1,0,0,1,0,0)" fill="white" class="wordmark-text-0" id="SvgjsPath2335"></path></svg></g></svg></g></svg></g></svg></g><g transform="matrix(1,0,0,1,44.57095418109773,0)"><svg viewBox="0 0 102.85809163780453 126.04249228871066" height="126.04249228871066" width="102.85809163780453"><g><svg xmlns="http://www.w3.org/2000/svg" xmlns:xlink="http://www.w3.org/1999/xlink" version="1.1" x="0" y="0" viewBox="18.933999999999987 5.1690000000000005 122.133 149.66199999999998" style="enable-background:new 0 0 160 160;" xml:space="preserve" height="126.04249228871066" width="102.85809163780453" class="icon-icon-0" data-fill-palette-color="accent" id="SvgjsSvg2334"><path d="M98.036 69.992c-0.221 0.174-0.482 0.302-0.774 0.333l-0.496 0.053c-1.55 0.166-2.865 1.229-3.354 2.709l-2.603 7.893c-0.758 2.3-2.318 4.251-4.394 5.495l-6.011 3.604c-1.703 1.021-3.652 1.562-5.638 1.562h-1.496c-1.985 0-3.935-0.54-5.638-1.562l-6.011-3.604c-2.075-1.244-3.636-3.195-4.394-5.494l-2.602-7.893c-0.488-1.479-1.805-2.543-3.357-2.71l-0.49-0.052c-0.684-0.073-1.24-0.598-1.354-1.277l-1.054-6.322c-0.145-0.866 0.157-1.734 0.807-2.324l1.65-1.499c0.04-0.036 0.068-0.08 0.105-0.117 0.096-0.095 0.185-0.194 0.27-0.299 0.058-0.073 0.114-0.146 0.166-0.223 0.07-0.104 0.132-0.212 0.19-0.323 0.044-0.083 0.089-0.165 0.125-0.251 0.049-0.115 0.087-0.234 0.124-0.354 0.027-0.088 0.057-0.175 0.077-0.264 0.027-0.12 0.039-0.243 0.053-0.367 0.011-0.096 0.027-0.19 0.029-0.286 0.001-0.023 0.007-0.044 0.007-0.067l0.109-9.856c0.018-1.584 0.731-3.071 1.958-4.078 1.2-0.986 2.688-1.377 4.193-1.092 10.308 1.927 23.578 0.757 32.7-1.7V32.34c-7.562 2.395-20.836 4.082-31.413 2.103-3.519-0.658-7.137 0.276-9.922 2.563-0.835 0.686-1.566 1.467-2.185 2.323L46.1 34.555c-0.357-1.293-0.184-2.645 0.49-3.805s1.761-1.982 3.061-2.313l3.436-0.875c1.551-0.395 2.636-1.792 2.636-3.392v-0.163c0-6.527 5.311-11.837 11.838-11.837 3.143 0 6.201 0.649 9.092 1.929 6.239 2.764 17.362 6.204 27.539 1.73 0.018 0.768-0.014 1.509-0.087 2.229h7.02c0.192-2.698-0.052-5.583-0.736-8.65-0.258-1.16-1.088-2.11-2.202-2.522-1.113-0.413-2.362-0.232-3.313 0.483C96.43 13.7 85.345 10.293 79.486 7.698c-3.789-1.678-7.802-2.529-11.927-2.529-9.504 0-17.387 7.075-18.658 16.234l-0.979 0.25c-3.137 0.799-5.76 2.782-7.386 5.582s-2.046 6.062-1.184 9.183l5.178 18.751-0.057 0.052c-2.418 2.197-3.542 5.434-3.004 8.656l1.053 6.321c0.542 3.259 2.928 5.879 6.021 6.791l2.038 6.184c0.797 2.414 2.117 4.6 3.842 6.416-9.875 0.001-18.048 7.43-19.226 16.991l-2.774 0.843c-8.068 2.45-13.489 9.762-13.489 18.193v25.715c0 1.933 1.567 3.5 3.5 3.5h103.172c1.933 0 3.5-1.567 3.5-3.5v-25.715c0-8.432-5.421-15.743-13.488-18.193l-2.775-0.843c-1.178-9.562-9.351-16.99-19.226-16.991 1.725-1.816 3.045-4.002 3.842-6.417l2.039-6.183c2.933-0.864 5.21-3.274 5.902-6.301h-3.567C100.496 70.688 99.22 70.434 98.036 69.992zM63.323 102.758v-7.102l0.711 0.426c2.79 1.673 5.984 2.558 9.237 2.558h1.496c3.253 0 6.447-0.885 9.237-2.558l0.711-0.426v7.102c0 0.65 0.189 1.251 0.498 1.773-1.454 4.807-5.92 8.318-11.194 8.318s-9.741-3.511-11.194-8.318C63.134 104.01 63.323 103.408 63.323 102.758zM58.059 106.051c2.098 6.823 8.458 11.799 15.96 11.799 7.502 0 13.862-4.975 15.96-11.799l1.153 0.415c0.728 0.262 1.313 0.823 1.607 1.54 0.284 0.694 0.266 1.44-0.052 2.101-3.438 7.154-10.504 11.599-18.439 11.599-0.079 0-0.153 0.016-0.229 0.023-0.077-0.007-0.151-0.023-0.229-0.023-7.936 0-15.001-4.444-18.439-11.599-0.317-0.66-0.336-1.406-0.052-2.1 0.294-0.718 0.88-1.279 1.608-1.541L58.059 106.051zM92.823 137.768c0 1.002-0.815 1.817-1.818 1.817-1.002 0-1.817-0.815-1.817-1.817 0-1.003 0.815-1.818 1.817-1.818C92.008 135.95 92.823 136.765 92.823 137.768zM58.852 137.768c0 1.002-0.815 1.817-1.817 1.817-1.003 0-1.818-0.815-1.818-1.817 0-1.003 0.815-1.818 1.818-1.818C58.036 135.95 58.852 136.765 58.852 137.768zM105.987 108.961v0.257c0 1.541 1.008 2.901 2.482 3.349l5.112 1.553c5.099 1.549 8.523 6.168 8.523 11.496v22.215H25.934v-22.215c0-5.328 3.425-9.947 8.523-11.496l5.112-1.553c1.475-0.447 2.483-1.808 2.483-3.349v-0.257c0-6.822 5.551-12.373 12.374-12.373h1.897v4.773l-1.109 0.399c-2.058 0.74-3.713 2.326-4.542 4.351-0.815 1.99-0.752 4.236 0.173 6.161 0.996 2.073 2.247 3.955 3.689 5.635v13.523c-2.525 1-4.318 3.461-4.318 6.337 0 3.759 3.059 6.817 6.818 6.817 3.759 0 6.817-3.059 6.817-6.817 0-2.876-1.793-5.337-4.317-6.337v-9.069c4.112 2.78 9.028 4.343 14.256 4.343 0.079 0 0.153-0.016 0.229-0.023 0.077 0.007 0.151 0.023 0.229 0.023 5.228 0 10.144-1.563 14.256-4.343v9.069c-2.524 1-4.317 3.461-4.317 6.337 0 3.759 3.059 6.817 6.817 6.817 3.76 0 6.818-3.059 6.818-6.817 0-2.877-1.793-5.337-4.318-6.337v-13.523c1.443-1.68 2.693-3.562 3.689-5.635 0.925-1.925 0.988-4.17 0.173-6.161-0.829-2.024-2.484-3.61-4.541-4.351l-1.11-0.4v-4.772h1.898C100.437 96.588 105.987 102.139 105.987 108.961z" fill="black"></path><path d="M132.672 20.559h-30.84c-4.629 0-8.395 3.766-8.395 8.395v30.839c0 4.629 3.766 8.395 8.395 8.395h6.6v11.024c0 1.02 0.619 1.938 1.565 2.318 0.303 0.122 0.62 0.182 0.934 0.182 0.667 0 1.321-0.267 1.803-0.767l12.276-12.757h7.662c4.629 0 8.395-3.766 8.395-8.395V28.954C141.066 24.325 137.301 20.559 132.672 20.559zM136.066 59.793c0 1.872-1.522 3.395-3.395 3.395h-8.726c-0.68 0-1.33 0.277-1.802 0.767l-8.713 9.054v-7.321c0-1.381-1.119-2.5-2.5-2.5h-9.1c-1.872 0-3.395-1.523-3.395-3.395V28.954c0-1.872 1.522-3.395 3.395-3.395h30.84c1.872 0 3.395 1.523 3.395 3.395V59.793z" fill="black"></path><path d="M110.426 40.456c1.062-0.882 1.208-2.458 0.325-3.521-0.883-1.064-2.461-1.208-3.521-0.325l-6.47 5.375c-0.571 0.475-0.902 1.18-0.902 1.923s0.331 1.448 0.902 1.923l6.47 5.375c0.467 0.388 1.033 0.577 1.597 0.577 0.717 0 1.43-0.307 1.924-0.902 0.883-1.062 0.736-2.638-0.325-3.521l-4.155-3.452L110.426 40.456z" fill="black"></path><path d="M126.551 36.61c-1.061-0.881-2.638-0.738-3.521 0.325-0.883 1.062-0.736 2.638 0.325 3.521l4.155 3.452-4.155 3.452c-1.062 0.882-1.208 2.458-0.325 3.521 0.494 0.595 1.207 0.902 1.924 0.902 0.563 0 1.13-0.189 1.597-0.577l6.47-5.375c0.571-0.475 0.902-1.18 0.902-1.923s-0.331-1.448-0.902-1.923L126.551 36.61z" fill="black"></path><path d="M120.032 34.517c-1.308-0.439-2.726 0.269-3.164 1.577l-4.698 14.042c-0.438 1.31 0.269 2.726 1.578 3.164 0.263 0.088 0.53 0.13 0.793 0.13 1.046 0 2.021-0.661 2.371-1.707l4.698-14.042C122.048 36.371 121.342 34.955 120.032 34.517z" fill="black"></path></svg></g></svg></g><g></g></svg></g></svg></g></svg></g></svg></g><defs><mask></mask></defs></svg><rect width="320" height="360" fill="black" stroke="none" visibility="hidden"></rect></g></mask><linearGradient x1="0" x2="1" y1="0.548" y2="0.55" id="a9f25830-dc65-4d6c-8415-19b60c69729e"><stop stop-color="#ff6cab" offset="0"></stop><stop stop-color="#7366ff" offset="1"></stop></linearGradient><rect width="320.000047" height="360" fill="url(#a9f25830-dc65-4d6c-8415-19b60c69729e)" mask="url(#c4b9484c-f1a7-4f7b-8947-5087b3ab3a29)" data-fill-palette-color="primary"></rect><mask id="88d0dbf7-7f1f-4da7-967d-35b00c89c79e"><g id="SvgjsG2357"><svg viewBox="0 0 320 360" height="360" width="320"><g><svg></svg></g><g><svg viewBox="0 0 320 360" height="360" width="320"><g><path transform="translate(-74.99272,-51.79039) scale(4.65793,4.65793)" d="M20.6 59.9l0.8 1-0.4-1.3c-0.1-0.6-0.8 0.1-0.4 0.3M21.5 59.3c0.3 0.5 0.6 1 0.6 1.5 0 0.7 0.6 1 1.1 1.2-0.7-0.8-1.1-3-1.7-2.7M59.9 16.9c1.7 0 3.3-0.2 5.1 0.2 4.4 1.1 8.1 3.3 10.6 6.4l7 11.2c0.3 2.8 0.9 5.9 0.8 9.3 0.7 0 0.6-1 1.4-1.2-0.8 2-1.2 4.5-1.4 7.4-0.5-1.6 0-4 0.1-5.3-0.7 1.1-1.1 0.3-1.1-0.2 0.1-0.8-0.3-0.7-0.6-1-1.1-1-1.8-2.1-2.6-3.8 0.5-1.3 0.6-3.2-1-4.2-0.5-0.3-1.1-0.8-1.4-1.6-0.4-1.1-1.1-2.4-0.9-4.1 0.1-0.5-1.5 1.1-2.4 0.4-3.9-2.7-7.8-5.8-12.5-8.4-2.5 0-4.3-0.9-5.2-2-0.8-1-0.2-2.3 1-2.4 0.7 0 1.5-0.2 2.1 0.2 0.1-0.4 0.5-0.9 1-0.9M50 14.6l0.2 0.1c1 0.2 1.5 1.6 2.6 1.1 0 0.7 0.1 1.4-0.1 1.9-0.3 0.8-1.2 0.8-1.9 0.8-6.7-0.4-10.6 2.4-14.7 4.8-1.1 0.7-2.3 1.2-3.2 2.1-4.3 4-9 7.7-10.1 15.1l-0.9 8.2c-0.1 0.9-1.1 1.8-0.9 2.9l0.7 4.9c-0.7-0.7-1.1 0.2-0.9 0.6 0.1 0.3 0.5 1.3 1.1 0.4 0.8 1.5 1.6 4.4 2.7 5.7 3.4 4 7.8 7.6 11.4 11.2 0.9-0.2 1.6-0.2 1.8-0.8 0.3 0.6-0.3 1.2-0.8 1.3 1.6 1 3.4 1.9 5.8 2.1 3.1 0.2 6 0.7 8.7 1.4 1.4-0.4 2.8-0.6 4.3-0.7 0.5 0 0.8-0.8 1.4-1l0.1-1c0.6 0.9 0.5-0.3 0.1-0.9 0.7 0.6 0.9 1.1 1.2 1.5 0-0.3 0.8-1.4 0.8-0.1l0.2-1.3c0.3-0.2 0.4 1.1 0.7 0.2 0.3-0.9 0.9-0.2 1.5-0.5-0.2 0.4-0.1 1.2 0.6 0.7l0.8-0.7c0.5 1.2 1.3 0.7 1.7 0.5 4.4-2.8 8.8-6.1 13-9.4l-0.1 1.3 0.5-1.6c0.5 0.5 0.9 0.1 1.1-0.2 0.6-1 1.4-2 2.7-2.9-1.6 4.3-3.5 7.7-5.9 10.5l-1 1.2c0 0.7-0.2 1.6-1 1.7-0.4 0.1-1.2-0.2-1.8 0.4-0.3 0.4 0.7 1.2-0.1 0.6-0.7-0.5-1.4 0-2.2 0.2-0.6 0.2 0.4 0.8 0.6 1.2 0.2 0.4 0.4 0.8 0.3 1.3l-1.1-1.2c-1.3 0.7-2.1 2-3.2 3-0.5 0.4-0.3 1.1-0.3 1.7-0.7 0-1.5-0.2-1.9 0.2-0.3 0.4-0.2 1-0.2 1.6-1-0.1-1.1-1.6-2-1.3-0.9 0.2-1.9 0.3-2.7 0.8 0.6 1.2-1 0.5-0.8 0.7-1.5-0.9-2.8-1.6-4.4-1-3.4-1.1-7.6-0.6-10.7-0.2 0-0.5 0.1-1-0.1-1.1-0.2 0.5-0.8 0.3-0.7 0.3-1.9-1.3-3.8-2.1-5.8-3.2-1.8 0.2-3.5-0.7-4-1.2-1.4-1.3-3-0.6-4.3-0.9-2.8-0.7-3.8-3.6-4.1-5.6-0.2-1-1-1.4-1.3-1.3-1.3-4.2-3.3-8-4.9-11.9-0.4-1-0.3-2-0.3-3.1 0.5 0.2 1 0.1 0.9-0.6-0.5-3.3-1.7-5.8-3-8.2 0.7-3.4 0.8-7.4 2.4-10.4 1.4-2.7 4-4.1 5.8-6.4 0.6-0.8 0.6-1.9 1.2-2.6 2-2 4-4.1 6.2-5.9 1-0.8 2.2 0 3.7-0.3 0.5-1.8 2.5-3.4 4.4-2.9 0.8 0.2 2.4-1.9 2.9-2.1 0.8-0.3 0.4 0.8 0.4 1.5 1.9-1.5 4.5-2.3 6.9-3.2" fill="black" fill-rule="nonzero" stroke="none" stroke-width="1" stroke-linecap="butt" stroke-linejoin="miter" stroke-miterlimit="10" stroke-dasharray="" stroke-dashoffset="0" font-family="none" font-weight="none" font-size="none" text-anchor="none" style="mix-blend-mode: normal"></path></g><g transform="matrix(1,0,0,1,85.05014689225922,90)"><svg viewBox="0 0 149.89970621548156 180" height="180" width="149.89970621548156"><g><svg viewBox="0 0 149.89970621548156 180" height="180" width="149.89970621548156"><g><svg viewBox="0 0 192 230.55415432449104" height="180" width="149.89970621548156"><g transform="matrix(1,0,0,1,0,139.35119318938925)"><svg viewBox="0 0 192 91.20296113510177" height="91.20296113510177" width="192"><g id="SvgjsG2356"><svg viewBox="0 0 192 91.20296113510177" height="91.20296113510177" width="192" id="SvgjsSvg2355"><g><svg viewBox="0 0 192 91.20296113510177" height="91.20296113510177" width="192"><g transform="matrix(1,0,0,1,0,0)"><svg width="192" viewBox="1.9 -38.5 81.05 38.5" height="91.20296113510177" data-palette-color="url(#a9f25830-dc65-4d6c-8415-19b60c69729e)"></svg></g></svg></g></svg></g></svg></g><g transform="matrix(1,0,0,1,44.57095418109773,0)"><svg viewBox="0 0 102.85809163780453 126.04249228871066" height="126.04249228871066" width="102.85809163780453"><g><svg xmlns="http://www.w3.org/2000/svg" xmlns:xlink="http://www.w3.org/1999/xlink" version="1.1" x="0" y="0" viewBox="18.933999999999987 5.1690000000000005 122.133 149.66199999999998" style="enable-background:new 0 0 160 160;" xml:space="preserve" height="126.04249228871066" width="102.85809163780453" class="icon-icon-0" data-fill-palette-color="accent" id="SvgjsSvg2354"><path d="M98.036 69.992c-0.221 0.174-0.482 0.302-0.774 0.333l-0.496 0.053c-1.55 0.166-2.865 1.229-3.354 2.709l-2.603 7.893c-0.758 2.3-2.318 4.251-4.394 5.495l-6.011 3.604c-1.703 1.021-3.652 1.562-5.638 1.562h-1.496c-1.985 0-3.935-0.54-5.638-1.562l-6.011-3.604c-2.075-1.244-3.636-3.195-4.394-5.494l-2.602-7.893c-0.488-1.479-1.805-2.543-3.357-2.71l-0.49-0.052c-0.684-0.073-1.24-0.598-1.354-1.277l-1.054-6.322c-0.145-0.866 0.157-1.734 0.807-2.324l1.65-1.499c0.04-0.036 0.068-0.08 0.105-0.117 0.096-0.095 0.185-0.194 0.27-0.299 0.058-0.073 0.114-0.146 0.166-0.223 0.07-0.104 0.132-0.212 0.19-0.323 0.044-0.083 0.089-0.165 0.125-0.251 0.049-0.115 0.087-0.234 0.124-0.354 0.027-0.088 0.057-0.175 0.077-0.264 0.027-0.12 0.039-0.243 0.053-0.367 0.011-0.096 0.027-0.19 0.029-0.286 0.001-0.023 0.007-0.044 0.007-0.067l0.109-9.856c0.018-1.584 0.731-3.071 1.958-4.078 1.2-0.986 2.688-1.377 4.193-1.092 10.308 1.927 23.578 0.757 32.7-1.7V32.34c-7.562 2.395-20.836 4.082-31.413 2.103-3.519-0.658-7.137 0.276-9.922 2.563-0.835 0.686-1.566 1.467-2.185 2.323L46.1 34.555c-0.357-1.293-0.184-2.645 0.49-3.805s1.761-1.982 3.061-2.313l3.436-0.875c1.551-0.395 2.636-1.792 2.636-3.392v-0.163c0-6.527 5.311-11.837 11.838-11.837 3.143 0 6.201 0.649 9.092 1.929 6.239 2.764 17.362 6.204 27.539 1.73 0.018 0.768-0.014 1.509-0.087 2.229h7.02c0.192-2.698-0.052-5.583-0.736-8.65-0.258-1.16-1.088-2.11-2.202-2.522-1.113-0.413-2.362-0.232-3.313 0.483C96.43 13.7 85.345 10.293 79.486 7.698c-3.789-1.678-7.802-2.529-11.927-2.529-9.504 0-17.387 7.075-18.658 16.234l-0.979 0.25c-3.137 0.799-5.76 2.782-7.386 5.582s-2.046 6.062-1.184 9.183l5.178 18.751-0.057 0.052c-2.418 2.197-3.542 5.434-3.004 8.656l1.053 6.321c0.542 3.259 2.928 5.879 6.021 6.791l2.038 6.184c0.797 2.414 2.117 4.6 3.842 6.416-9.875 0.001-18.048 7.43-19.226 16.991l-2.774 0.843c-8.068 2.45-13.489 9.762-13.489 18.193v25.715c0 1.933 1.567 3.5 3.5 3.5h103.172c1.933 0 3.5-1.567 3.5-3.5v-25.715c0-8.432-5.421-15.743-13.488-18.193l-2.775-0.843c-1.178-9.562-9.351-16.99-19.226-16.991 1.725-1.816 3.045-4.002 3.842-6.417l2.039-6.183c2.933-0.864 5.21-3.274 5.902-6.301h-3.567C100.496 70.688 99.22 70.434 98.036 69.992zM63.323 102.758v-7.102l0.711 0.426c2.79 1.673 5.984 2.558 9.237 2.558h1.496c3.253 0 6.447-0.885 9.237-2.558l0.711-0.426v7.102c0 0.65 0.189 1.251 0.498 1.773-1.454 4.807-5.92 8.318-11.194 8.318s-9.741-3.511-11.194-8.318C63.134 104.01 63.323 103.408 63.323 102.758zM58.059 106.051c2.098 6.823 8.458 11.799 15.96 11.799 7.502 0 13.862-4.975 15.96-11.799l1.153 0.415c0.728 0.262 1.313 0.823 1.607 1.54 0.284 0.694 0.266 1.44-0.052 2.101-3.438 7.154-10.504 11.599-18.439 11.599-0.079 0-0.153 0.016-0.229 0.023-0.077-0.007-0.151-0.023-0.229-0.023-7.936 0-15.001-4.444-18.439-11.599-0.317-0.66-0.336-1.406-0.052-2.1 0.294-0.718 0.88-1.279 1.608-1.541L58.059 106.051zM92.823 137.768c0 1.002-0.815 1.817-1.818 1.817-1.002 0-1.817-0.815-1.817-1.817 0-1.003 0.815-1.818 1.817-1.818C92.008 135.95 92.823 136.765 92.823 137.768zM58.852 137.768c0 1.002-0.815 1.817-1.817 1.817-1.003 0-1.818-0.815-1.818-1.817 0-1.003 0.815-1.818 1.818-1.818C58.036 135.95 58.852 136.765 58.852 137.768zM105.987 108.961v0.257c0 1.541 1.008 2.901 2.482 3.349l5.112 1.553c5.099 1.549 8.523 6.168 8.523 11.496v22.215H25.934v-22.215c0-5.328 3.425-9.947 8.523-11.496l5.112-1.553c1.475-0.447 2.483-1.808 2.483-3.349v-0.257c0-6.822 5.551-12.373 12.374-12.373h1.897v4.773l-1.109 0.399c-2.058 0.74-3.713 2.326-4.542 4.351-0.815 1.99-0.752 4.236 0.173 6.161 0.996 2.073 2.247 3.955 3.689 5.635v13.523c-2.525 1-4.318 3.461-4.318 6.337 0 3.759 3.059 6.817 6.818 6.817 3.759 0 6.817-3.059 6.817-6.817 0-2.876-1.793-5.337-4.317-6.337v-9.069c4.112 2.78 9.028 4.343 14.256 4.343 0.079 0 0.153-0.016 0.229-0.023 0.077 0.007 0.151 0.023 0.229 0.023 5.228 0 10.144-1.563 14.256-4.343v9.069c-2.524 1-4.317 3.461-4.317 6.337 0 3.759 3.059 6.817 6.817 6.817 3.76 0 6.818-3.059 6.818-6.817 0-2.877-1.793-5.337-4.318-6.337v-13.523c1.443-1.68 2.693-3.562 3.689-5.635 0.925-1.925 0.988-4.17 0.173-6.161-0.829-2.024-2.484-3.61-4.541-4.351l-1.11-0.4v-4.772h1.898C100.437 96.588 105.987 102.139 105.987 108.961z" fill="white"></path><path d="M132.672 20.559h-30.84c-4.629 0-8.395 3.766-8.395 8.395v30.839c0 4.629 3.766 8.395 8.395 8.395h6.6v11.024c0 1.02 0.619 1.938 1.565 2.318 0.303 0.122 0.62 0.182 0.934 0.182 0.667 0 1.321-0.267 1.803-0.767l12.276-12.757h7.662c4.629 0 8.395-3.766 8.395-8.395V28.954C141.066 24.325 137.301 20.559 132.672 20.559zM136.066 59.793c0 1.872-1.522 3.395-3.395 3.395h-8.726c-0.68 0-1.33 0.277-1.802 0.767l-8.713 9.054v-7.321c0-1.381-1.119-2.5-2.5-2.5h-9.1c-1.872 0-3.395-1.523-3.395-3.395V28.954c0-1.872 1.522-3.395 3.395-3.395h30.84c1.872 0 3.395 1.523 3.395 3.395V59.793z" fill="white"></path><path d="M110.426 40.456c1.062-0.882 1.208-2.458 0.325-3.521-0.883-1.064-2.461-1.208-3.521-0.325l-6.47 5.375c-0.571 0.475-0.902 1.18-0.902 1.923s0.331 1.448 0.902 1.923l6.47 5.375c0.467 0.388 1.033 0.577 1.597 0.577 0.717 0 1.43-0.307 1.924-0.902 0.883-1.062 0.736-2.638-0.325-3.521l-4.155-3.452L110.426 40.456z" fill="white"></path><path d="M126.551 36.61c-1.061-0.881-2.638-0.738-3.521 0.325-0.883 1.062-0.736 2.638 0.325 3.521l4.155 3.452-4.155 3.452c-1.062 0.882-1.208 2.458-0.325 3.521 0.494 0.595 1.207 0.902 1.924 0.902 0.563 0 1.13-0.189 1.597-0.577l6.47-5.375c0.571-0.475 0.902-1.18 0.902-1.923s-0.331-1.448-0.902-1.923L126.551 36.61z" fill="white"></path><path d="M120.032 34.517c-1.308-0.439-2.726 0.269-3.164 1.577l-4.698 14.042c-0.438 1.31 0.269 2.726 1.578 3.164 0.263 0.088 0.53 0.13 0.793 0.13 1.046 0 2.021-0.661 2.371-1.707l4.698-14.042C122.048 36.371 121.342 34.955 120.032 34.517z" fill="white"></path></svg></g></svg></g><g></g></svg></g></svg></g></svg></g></svg></g><defs><mask></mask></defs><mask><g id="SvgjsG2353"><svg viewBox="0 0 320 360" height="360" width="320"><g><svg></svg></g><g><svg viewBox="0 0 320 360" height="360" width="320"><g><path transform="translate(-74.99272,-51.79039) scale(4.65793,4.65793)" d="M20.6 59.9l0.8 1-0.4-1.3c-0.1-0.6-0.8 0.1-0.4 0.3M21.5 59.3c0.3 0.5 0.6 1 0.6 1.5 0 0.7 0.6 1 1.1 1.2-0.7-0.8-1.1-3-1.7-2.7M59.9 16.9c1.7 0 3.3-0.2 5.1 0.2 4.4 1.1 8.1 3.3 10.6 6.4l7 11.2c0.3 2.8 0.9 5.9 0.8 9.3 0.7 0 0.6-1 1.4-1.2-0.8 2-1.2 4.5-1.4 7.4-0.5-1.6 0-4 0.1-5.3-0.7 1.1-1.1 0.3-1.1-0.2 0.1-0.8-0.3-0.7-0.6-1-1.1-1-1.8-2.1-2.6-3.8 0.5-1.3 0.6-3.2-1-4.2-0.5-0.3-1.1-0.8-1.4-1.6-0.4-1.1-1.1-2.4-0.9-4.1 0.1-0.5-1.5 1.1-2.4 0.4-3.9-2.7-7.8-5.8-12.5-8.4-2.5 0-4.3-0.9-5.2-2-0.8-1-0.2-2.3 1-2.4 0.7 0 1.5-0.2 2.1 0.2 0.1-0.4 0.5-0.9 1-0.9M50 14.6l0.2 0.1c1 0.2 1.5 1.6 2.6 1.1 0 0.7 0.1 1.4-0.1 1.9-0.3 0.8-1.2 0.8-1.9 0.8-6.7-0.4-10.6 2.4-14.7 4.8-1.1 0.7-2.3 1.2-3.2 2.1-4.3 4-9 7.7-10.1 15.1l-0.9 8.2c-0.1 0.9-1.1 1.8-0.9 2.9l0.7 4.9c-0.7-0.7-1.1 0.2-0.9 0.6 0.1 0.3 0.5 1.3 1.1 0.4 0.8 1.5 1.6 4.4 2.7 5.7 3.4 4 7.8 7.6 11.4 11.2 0.9-0.2 1.6-0.2 1.8-0.8 0.3 0.6-0.3 1.2-0.8 1.3 1.6 1 3.4 1.9 5.8 2.1 3.1 0.2 6 0.7 8.7 1.4 1.4-0.4 2.8-0.6 4.3-0.7 0.5 0 0.8-0.8 1.4-1l0.1-1c0.6 0.9 0.5-0.3 0.1-0.9 0.7 0.6 0.9 1.1 1.2 1.5 0-0.3 0.8-1.4 0.8-0.1l0.2-1.3c0.3-0.2 0.4 1.1 0.7 0.2 0.3-0.9 0.9-0.2 1.5-0.5-0.2 0.4-0.1 1.2 0.6 0.7l0.8-0.7c0.5 1.2 1.3 0.7 1.7 0.5 4.4-2.8 8.8-6.1 13-9.4l-0.1 1.3 0.5-1.6c0.5 0.5 0.9 0.1 1.1-0.2 0.6-1 1.4-2 2.7-2.9-1.6 4.3-3.5 7.7-5.9 10.5l-1 1.2c0 0.7-0.2 1.6-1 1.7-0.4 0.1-1.2-0.2-1.8 0.4-0.3 0.4 0.7 1.2-0.1 0.6-0.7-0.5-1.4 0-2.2 0.2-0.6 0.2 0.4 0.8 0.6 1.2 0.2 0.4 0.4 0.8 0.3 1.3l-1.1-1.2c-1.3 0.7-2.1 2-3.2 3-0.5 0.4-0.3 1.1-0.3 1.7-0.7 0-1.5-0.2-1.9 0.2-0.3 0.4-0.2 1-0.2 1.6-1-0.1-1.1-1.6-2-1.3-0.9 0.2-1.9 0.3-2.7 0.8 0.6 1.2-1 0.5-0.8 0.7-1.5-0.9-2.8-1.6-4.4-1-3.4-1.1-7.6-0.6-10.7-0.2 0-0.5 0.1-1-0.1-1.1-0.2 0.5-0.8 0.3-0.7 0.3-1.9-1.3-3.8-2.1-5.8-3.2-1.8 0.2-3.5-0.7-4-1.2-1.4-1.3-3-0.6-4.3-0.9-2.8-0.7-3.8-3.6-4.1-5.6-0.2-1-1-1.4-1.3-1.3-1.3-4.2-3.3-8-4.9-11.9-0.4-1-0.3-2-0.3-3.1 0.5 0.2 1 0.1 0.9-0.6-0.5-3.3-1.7-5.8-3-8.2 0.7-3.4 0.8-7.4 2.4-10.4 1.4-2.7 4-4.1 5.8-6.4 0.6-0.8 0.6-1.9 1.2-2.6 2-2 4-4.1 6.2-5.9 1-0.8 2.2 0 3.7-0.3 0.5-1.8 2.5-3.4 4.4-2.9 0.8 0.2 2.4-1.9 2.9-2.1 0.8-0.3 0.4 0.8 0.4 1.5 1.9-1.5 4.5-2.3 6.9-3.2" fill="black" fill-rule="nonzero" stroke="none" stroke-width="1" stroke-linecap="butt" stroke-linejoin="miter" stroke-miterlimit="10" stroke-dasharray="" stroke-dashoffset="0" font-family="none" font-weight="none" font-size="none" text-anchor="none" style="mix-blend-mode: normal"></path></g><g transform="matrix(1,0,0,1,85.05014689225922,90)"><svg viewBox="0 0 149.89970621548156 180" height="180" width="149.89970621548156"><g><svg viewBox="0 0 149.89970621548156 180" height="180" width="149.89970621548156"><g><svg viewBox="0 0 192 230.55415432449104" height="180" width="149.89970621548156"><g transform="matrix(1,0,0,1,0,139.35119318938925)"><svg viewBox="0 0 192 91.20296113510177" height="91.20296113510177" width="192"><g id="SvgjsG2352"><svg viewBox="0 0 192 91.20296113510177" height="91.20296113510177" width="192" id="SvgjsSvg2351"><g><svg viewBox="0 0 192 91.20296113510177" height="91.20296113510177" width="192"><g transform="matrix(1,0,0,1,0,0)"><svg width="192" viewBox="1.9 -38.5 81.05 38.5" height="91.20296113510177" data-palette-color="url(#a9f25830-dc65-4d6c-8415-19b60c69729e)"><path d="M21.45 0L1.9 0 1.9-1.9Q3.8-1.95 4.98-2.18 6.15-2.4 6.8-3.03 7.45-3.65 7.68-4.73 7.9-5.8 7.9-7.6L7.9-7.6 7.9-30.9Q7.9-32.65 7.73-33.73 7.55-34.8 7.03-35.43 6.5-36.05 5.5-36.27 4.5-36.5 2.9-36.6L2.9-36.6 2.9-38.5 20.45-38.5Q24.95-38.5 28.78-37 32.6-35.5 35.38-32.85 38.15-30.2 39.7-26.55 41.25-22.9 41.25-18.6L41.25-18.6Q41.25-14.5 39.8-11.08 38.35-7.65 35.73-5.2 33.1-2.75 29.45-1.38 25.8 0 21.45 0L21.45 0ZM20.35-36.05L14-36.05Q13.15-36.05 13.15-35.2L13.15-35.2 13.15-8.15Q13.15-2.45 20.6-2.45L20.6-2.45Q27.45-2.45 31.1-6.53 34.75-10.6 34.75-18.5L34.75-18.5Q34.75-22.65 33.75-25.9 32.75-29.15 30.88-31.4 29-33.65 26.35-34.85 23.7-36.05 20.35-36.05L20.35-36.05ZM82.45-38.5L82.95-28.95 80.9-28.95Q80.75-31.1 80.2-32.55 79.65-34 78.62-34.83 77.6-35.65 76.05-36 74.5-36.35 72.35-36.35L72.35-36.35Q70.5-36.35 69.37-36.27 68.25-36.2 67.65-36 67.05-35.8 66.87-35.52 66.7-35.25 66.7-34.8L66.7-34.8 66.7-8.05Q66.7-6.45 66.92-5.3 67.15-4.15 67.82-3.43 68.5-2.7 69.77-2.33 71.05-1.95 73.15-1.9L73.15-1.9 73.15 0 54.25 0 54.25-1.9Q56.35-1.95 57.65-2.33 58.95-2.7 59.62-3.43 60.3-4.15 60.52-5.3 60.75-6.45 60.75-8.05L60.75-8.05 60.75-34.8Q60.75-35.25 60.57-35.52 60.4-35.8 59.87-36 59.35-36.2 58.4-36.27 57.45-36.35 55.85-36.35L55.85-36.35Q53.9-36.35 52.22-36.2 50.55-36.05 49.32-35.33 48.1-34.6 47.35-33.1 46.6-31.6 46.55-28.95L46.55-28.95 44.7-28.95 44.7-38.5 82.45-38.5Z" opacity="1" transform="matrix(1,0,0,1,0,0)" fill="black" class="wordmark-text-0" id="SvgjsPath2350"></path></svg></g></svg></g></svg></g></svg></g><g transform="matrix(1,0,0,1,44.57095418109773,0)"><svg viewBox="0 0 102.85809163780453 126.04249228871066" height="126.04249228871066" width="102.85809163780453"><g><svg xmlns="http://www.w3.org/2000/svg" xmlns:xlink="http://www.w3.org/1999/xlink" version="1.1" x="0" y="0" viewBox="18.933999999999987 5.1690000000000005 122.133 149.66199999999998" style="enable-background:new 0 0 160 160;" xml:space="preserve" height="126.04249228871066" width="102.85809163780453" class="icon-icon-0" data-fill-palette-color="accent" id="SvgjsSvg2349"><path d="M98.036 69.992c-0.221 0.174-0.482 0.302-0.774 0.333l-0.496 0.053c-1.55 0.166-2.865 1.229-3.354 2.709l-2.603 7.893c-0.758 2.3-2.318 4.251-4.394 5.495l-6.011 3.604c-1.703 1.021-3.652 1.562-5.638 1.562h-1.496c-1.985 0-3.935-0.54-5.638-1.562l-6.011-3.604c-2.075-1.244-3.636-3.195-4.394-5.494l-2.602-7.893c-0.488-1.479-1.805-2.543-3.357-2.71l-0.49-0.052c-0.684-0.073-1.24-0.598-1.354-1.277l-1.054-6.322c-0.145-0.866 0.157-1.734 0.807-2.324l1.65-1.499c0.04-0.036 0.068-0.08 0.105-0.117 0.096-0.095 0.185-0.194 0.27-0.299 0.058-0.073 0.114-0.146 0.166-0.223 0.07-0.104 0.132-0.212 0.19-0.323 0.044-0.083 0.089-0.165 0.125-0.251 0.049-0.115 0.087-0.234 0.124-0.354 0.027-0.088 0.057-0.175 0.077-0.264 0.027-0.12 0.039-0.243 0.053-0.367 0.011-0.096 0.027-0.19 0.029-0.286 0.001-0.023 0.007-0.044 0.007-0.067l0.109-9.856c0.018-1.584 0.731-3.071 1.958-4.078 1.2-0.986 2.688-1.377 4.193-1.092 10.308 1.927 23.578 0.757 32.7-1.7V32.34c-7.562 2.395-20.836 4.082-31.413 2.103-3.519-0.658-7.137 0.276-9.922 2.563-0.835 0.686-1.566 1.467-2.185 2.323L46.1 34.555c-0.357-1.293-0.184-2.645 0.49-3.805s1.761-1.982 3.061-2.313l3.436-0.875c1.551-0.395 2.636-1.792 2.636-3.392v-0.163c0-6.527 5.311-11.837 11.838-11.837 3.143 0 6.201 0.649 9.092 1.929 6.239 2.764 17.362 6.204 27.539 1.73 0.018 0.768-0.014 1.509-0.087 2.229h7.02c0.192-2.698-0.052-5.583-0.736-8.65-0.258-1.16-1.088-2.11-2.202-2.522-1.113-0.413-2.362-0.232-3.313 0.483C96.43 13.7 85.345 10.293 79.486 7.698c-3.789-1.678-7.802-2.529-11.927-2.529-9.504 0-17.387 7.075-18.658 16.234l-0.979 0.25c-3.137 0.799-5.76 2.782-7.386 5.582s-2.046 6.062-1.184 9.183l5.178 18.751-0.057 0.052c-2.418 2.197-3.542 5.434-3.004 8.656l1.053 6.321c0.542 3.259 2.928 5.879 6.021 6.791l2.038 6.184c0.797 2.414 2.117 4.6 3.842 6.416-9.875 0.001-18.048 7.43-19.226 16.991l-2.774 0.843c-8.068 2.45-13.489 9.762-13.489 18.193v25.715c0 1.933 1.567 3.5 3.5 3.5h103.172c1.933 0 3.5-1.567 3.5-3.5v-25.715c0-8.432-5.421-15.743-13.488-18.193l-2.775-0.843c-1.178-9.562-9.351-16.99-19.226-16.991 1.725-1.816 3.045-4.002 3.842-6.417l2.039-6.183c2.933-0.864 5.21-3.274 5.902-6.301h-3.567C100.496 70.688 99.22 70.434 98.036 69.992zM63.323 102.758v-7.102l0.711 0.426c2.79 1.673 5.984 2.558 9.237 2.558h1.496c3.253 0 6.447-0.885 9.237-2.558l0.711-0.426v7.102c0 0.65 0.189 1.251 0.498 1.773-1.454 4.807-5.92 8.318-11.194 8.318s-9.741-3.511-11.194-8.318C63.134 104.01 63.323 103.408 63.323 102.758zM58.059 106.051c2.098 6.823 8.458 11.799 15.96 11.799 7.502 0 13.862-4.975 15.96-11.799l1.153 0.415c0.728 0.262 1.313 0.823 1.607 1.54 0.284 0.694 0.266 1.44-0.052 2.101-3.438 7.154-10.504 11.599-18.439 11.599-0.079 0-0.153 0.016-0.229 0.023-0.077-0.007-0.151-0.023-0.229-0.023-7.936 0-15.001-4.444-18.439-11.599-0.317-0.66-0.336-1.406-0.052-2.1 0.294-0.718 0.88-1.279 1.608-1.541L58.059 106.051zM92.823 137.768c0 1.002-0.815 1.817-1.818 1.817-1.002 0-1.817-0.815-1.817-1.817 0-1.003 0.815-1.818 1.817-1.818C92.008 135.95 92.823 136.765 92.823 137.768zM58.852 137.768c0 1.002-0.815 1.817-1.817 1.817-1.003 0-1.818-0.815-1.818-1.817 0-1.003 0.815-1.818 1.818-1.818C58.036 135.95 58.852 136.765 58.852 137.768zM105.987 108.961v0.257c0 1.541 1.008 2.901 2.482 3.349l5.112 1.553c5.099 1.549 8.523 6.168 8.523 11.496v22.215H25.934v-22.215c0-5.328 3.425-9.947 8.523-11.496l5.112-1.553c1.475-0.447 2.483-1.808 2.483-3.349v-0.257c0-6.822 5.551-12.373 12.374-12.373h1.897v4.773l-1.109 0.399c-2.058 0.74-3.713 2.326-4.542 4.351-0.815 1.99-0.752 4.236 0.173 6.161 0.996 2.073 2.247 3.955 3.689 5.635v13.523c-2.525 1-4.318 3.461-4.318 6.337 0 3.759 3.059 6.817 6.818 6.817 3.759 0 6.817-3.059 6.817-6.817 0-2.876-1.793-5.337-4.317-6.337v-9.069c4.112 2.78 9.028 4.343 14.256 4.343 0.079 0 0.153-0.016 0.229-0.023 0.077 0.007 0.151 0.023 0.229 0.023 5.228 0 10.144-1.563 14.256-4.343v9.069c-2.524 1-4.317 3.461-4.317 6.337 0 3.759 3.059 6.817 6.817 6.817 3.76 0 6.818-3.059 6.818-6.817 0-2.877-1.793-5.337-4.318-6.337v-13.523c1.443-1.68 2.693-3.562 3.689-5.635 0.925-1.925 0.988-4.17 0.173-6.161-0.829-2.024-2.484-3.61-4.541-4.351l-1.11-0.4v-4.772h1.898C100.437 96.588 105.987 102.139 105.987 108.961z" fill="black"></path><path d="M132.672 20.559h-30.84c-4.629 0-8.395 3.766-8.395 8.395v30.839c0 4.629 3.766 8.395 8.395 8.395h6.6v11.024c0 1.02 0.619 1.938 1.565 2.318 0.303 0.122 0.62 0.182 0.934 0.182 0.667 0 1.321-0.267 1.803-0.767l12.276-12.757h7.662c4.629 0 8.395-3.766 8.395-8.395V28.954C141.066 24.325 137.301 20.559 132.672 20.559zM136.066 59.793c0 1.872-1.522 3.395-3.395 3.395h-8.726c-0.68 0-1.33 0.277-1.802 0.767l-8.713 9.054v-7.321c0-1.381-1.119-2.5-2.5-2.5h-9.1c-1.872 0-3.395-1.523-3.395-3.395V28.954c0-1.872 1.522-3.395 3.395-3.395h30.84c1.872 0 3.395 1.523 3.395 3.395V59.793z" fill="black"></path><path d="M110.426 40.456c1.062-0.882 1.208-2.458 0.325-3.521-0.883-1.064-2.461-1.208-3.521-0.325l-6.47 5.375c-0.571 0.475-0.902 1.18-0.902 1.923s0.331 1.448 0.902 1.923l6.47 5.375c0.467 0.388 1.033 0.577 1.597 0.577 0.717 0 1.43-0.307 1.924-0.902 0.883-1.062 0.736-2.638-0.325-3.521l-4.155-3.452L110.426 40.456z" fill="black"></path><path d="M126.551 36.61c-1.061-0.881-2.638-0.738-3.521 0.325-0.883 1.062-0.736 2.638 0.325 3.521l4.155 3.452-4.155 3.452c-1.062 0.882-1.208 2.458-0.325 3.521 0.494 0.595 1.207 0.902 1.924 0.902 0.563 0 1.13-0.189 1.597-0.577l6.47-5.375c0.571-0.475 0.902-1.18 0.902-1.923s-0.331-1.448-0.902-1.923L126.551 36.61z" fill="black"></path><path d="M120.032 34.517c-1.308-0.439-2.726 0.269-3.164 1.577l-4.698 14.042c-0.438 1.31 0.269 2.726 1.578 3.164 0.263 0.088 0.53 0.13 0.793 0.13 1.046 0 2.021-0.661 2.371-1.707l4.698-14.042C122.048 36.371 121.342 34.955 120.032 34.517z" fill="black"></path></svg></g></svg></g><g></g></svg></g></svg></g></svg></g></svg></g><defs><mask></mask></defs></svg><rect width="320" height="360" fill="black" stroke="none" visibility="hidden"></rect></g></mask></svg><rect width="320" height="360" fill="black" stroke="none" visibility="hidden"></rect></g></mask><linearGradient x1="0" x2="1" y1="0.548" y2="0.55" id="184d83c4-a153-4a1d-af5a-d6823acea148"><stop stop-color="#ff6cab" offset="0"></stop><stop stop-color="#7366ff" offset="1"></stop></linearGradient><rect width="320.000094" height="360" fill="url(#184d83c4-a153-4a1d-af5a-d6823acea148)" mask="url(#88d0dbf7-7f1f-4da7-967d-35b00c89c79e)" data-fill-palette-color="accent"></rect><mask id="6b99bb6e-461b-491d-a916-074633b0356a"><g id="SvgjsG2375"><svg viewBox="0 0 320 360" height="360" width="320"><g><svg></svg></g><g><svg viewBox="0 0 320 360" height="360" width="320"><g><path transform="translate(-74.99272,-51.79039) scale(4.65793,4.65793)" d="M20.6 59.9l0.8 1-0.4-1.3c-0.1-0.6-0.8 0.1-0.4 0.3M21.5 59.3c0.3 0.5 0.6 1 0.6 1.5 0 0.7 0.6 1 1.1 1.2-0.7-0.8-1.1-3-1.7-2.7M59.9 16.9c1.7 0 3.3-0.2 5.1 0.2 4.4 1.1 8.1 3.3 10.6 6.4l7 11.2c0.3 2.8 0.9 5.9 0.8 9.3 0.7 0 0.6-1 1.4-1.2-0.8 2-1.2 4.5-1.4 7.4-0.5-1.6 0-4 0.1-5.3-0.7 1.1-1.1 0.3-1.1-0.2 0.1-0.8-0.3-0.7-0.6-1-1.1-1-1.8-2.1-2.6-3.8 0.5-1.3 0.6-3.2-1-4.2-0.5-0.3-1.1-0.8-1.4-1.6-0.4-1.1-1.1-2.4-0.9-4.1 0.1-0.5-1.5 1.1-2.4 0.4-3.9-2.7-7.8-5.8-12.5-8.4-2.5 0-4.3-0.9-5.2-2-0.8-1-0.2-2.3 1-2.4 0.7 0 1.5-0.2 2.1 0.2 0.1-0.4 0.5-0.9 1-0.9M50 14.6l0.2 0.1c1 0.2 1.5 1.6 2.6 1.1 0 0.7 0.1 1.4-0.1 1.9-0.3 0.8-1.2 0.8-1.9 0.8-6.7-0.4-10.6 2.4-14.7 4.8-1.1 0.7-2.3 1.2-3.2 2.1-4.3 4-9 7.7-10.1 15.1l-0.9 8.2c-0.1 0.9-1.1 1.8-0.9 2.9l0.7 4.9c-0.7-0.7-1.1 0.2-0.9 0.6 0.1 0.3 0.5 1.3 1.1 0.4 0.8 1.5 1.6 4.4 2.7 5.7 3.4 4 7.8 7.6 11.4 11.2 0.9-0.2 1.6-0.2 1.8-0.8 0.3 0.6-0.3 1.2-0.8 1.3 1.6 1 3.4 1.9 5.8 2.1 3.1 0.2 6 0.7 8.7 1.4 1.4-0.4 2.8-0.6 4.3-0.7 0.5 0 0.8-0.8 1.4-1l0.1-1c0.6 0.9 0.5-0.3 0.1-0.9 0.7 0.6 0.9 1.1 1.2 1.5 0-0.3 0.8-1.4 0.8-0.1l0.2-1.3c0.3-0.2 0.4 1.1 0.7 0.2 0.3-0.9 0.9-0.2 1.5-0.5-0.2 0.4-0.1 1.2 0.6 0.7l0.8-0.7c0.5 1.2 1.3 0.7 1.7 0.5 4.4-2.8 8.8-6.1 13-9.4l-0.1 1.3 0.5-1.6c0.5 0.5 0.9 0.1 1.1-0.2 0.6-1 1.4-2 2.7-2.9-1.6 4.3-3.5 7.7-5.9 10.5l-1 1.2c0 0.7-0.2 1.6-1 1.7-0.4 0.1-1.2-0.2-1.8 0.4-0.3 0.4 0.7 1.2-0.1 0.6-0.7-0.5-1.4 0-2.2 0.2-0.6 0.2 0.4 0.8 0.6 1.2 0.2 0.4 0.4 0.8 0.3 1.3l-1.1-1.2c-1.3 0.7-2.1 2-3.2 3-0.5 0.4-0.3 1.1-0.3 1.7-0.7 0-1.5-0.2-1.9 0.2-0.3 0.4-0.2 1-0.2 1.6-1-0.1-1.1-1.6-2-1.3-0.9 0.2-1.9 0.3-2.7 0.8 0.6 1.2-1 0.5-0.8 0.7-1.5-0.9-2.8-1.6-4.4-1-3.4-1.1-7.6-0.6-10.7-0.2 0-0.5 0.1-1-0.1-1.1-0.2 0.5-0.8 0.3-0.7 0.3-1.9-1.3-3.8-2.1-5.8-3.2-1.8 0.2-3.5-0.7-4-1.2-1.4-1.3-3-0.6-4.3-0.9-2.8-0.7-3.8-3.6-4.1-5.6-0.2-1-1-1.4-1.3-1.3-1.3-4.2-3.3-8-4.9-11.9-0.4-1-0.3-2-0.3-3.1 0.5 0.2 1 0.1 0.9-0.6-0.5-3.3-1.7-5.8-3-8.2 0.7-3.4 0.8-7.4 2.4-10.4 1.4-2.7 4-4.1 5.8-6.4 0.6-0.8 0.6-1.9 1.2-2.6 2-2 4-4.1 6.2-5.9 1-0.8 2.2 0 3.7-0.3 0.5-1.8 2.5-3.4 4.4-2.9 0.8 0.2 2.4-1.9 2.9-2.1 0.8-0.3 0.4 0.8 0.4 1.5 1.9-1.5 4.5-2.3 6.9-3.2" fill="white" fill-rule="nonzero" stroke="none" stroke-width="1" stroke-linecap="butt" stroke-linejoin="miter" stroke-miterlimit="10" stroke-dasharray="" stroke-dashoffset="0" font-family="none" font-weight="none" font-size="none" text-anchor="none" style="mix-blend-mode: normal"></path></g><g transform="matrix(1,0,0,1,85.05014689225922,90)"><svg viewBox="0 0 149.89970621548156 180" height="180" width="149.89970621548156"><g><svg viewBox="0 0 149.89970621548156 180" height="180" width="149.89970621548156"><g><svg viewBox="0 0 192 230.55415432449104" height="180" width="149.89970621548156"><g transform="matrix(1,0,0,1,0,139.35119318938925)"><svg viewBox="0 0 192 91.20296113510177" height="91.20296113510177" width="192"><g id="SvgjsG2374"><svg viewBox="0 0 192 91.20296113510177" height="91.20296113510177" width="192" id="SvgjsSvg2373"><g><svg viewBox="0 0 192 91.20296113510177" height="91.20296113510177" width="192"><g transform="matrix(1,0,0,1,0,0)"><svg width="192" viewBox="1.9 -38.5 81.05 38.5" height="91.20296113510177" data-palette-color="url(#a9f25830-dc65-4d6c-8415-19b60c69729e)"></svg></g></svg></g></svg></g></svg></g><g transform="matrix(1,0,0,1,44.57095418109773,0)"><svg viewBox="0 0 102.85809163780453 126.04249228871066" height="126.04249228871066" width="102.85809163780453"><g><svg xmlns="http://www.w3.org/2000/svg" xmlns:xlink="http://www.w3.org/1999/xlink" version="1.1" x="0" y="0" viewBox="18.933999999999987 5.1690000000000005 122.133 149.66199999999998" style="enable-background:new 0 0 160 160;" xml:space="preserve" height="126.04249228871066" width="102.85809163780453" class="icon-icon-0" data-fill-palette-color="accent" id="SvgjsSvg2372"></svg></g></svg></g><g></g></svg></g></svg></g></svg></g></svg></g><defs><mask></mask></defs><mask><g id="SvgjsG2371"><svg viewBox="0 0 320 360" height="360" width="320"><g><svg></svg></g><g><svg viewBox="0 0 320 360" height="360" width="320"><g><path transform="translate(-74.99272,-51.79039) scale(4.65793,4.65793)" d="M20.6 59.9l0.8 1-0.4-1.3c-0.1-0.6-0.8 0.1-0.4 0.3M21.5 59.3c0.3 0.5 0.6 1 0.6 1.5 0 0.7 0.6 1 1.1 1.2-0.7-0.8-1.1-3-1.7-2.7M59.9 16.9c1.7 0 3.3-0.2 5.1 0.2 4.4 1.1 8.1 3.3 10.6 6.4l7 11.2c0.3 2.8 0.9 5.9 0.8 9.3 0.7 0 0.6-1 1.4-1.2-0.8 2-1.2 4.5-1.4 7.4-0.5-1.6 0-4 0.1-5.3-0.7 1.1-1.1 0.3-1.1-0.2 0.1-0.8-0.3-0.7-0.6-1-1.1-1-1.8-2.1-2.6-3.8 0.5-1.3 0.6-3.2-1-4.2-0.5-0.3-1.1-0.8-1.4-1.6-0.4-1.1-1.1-2.4-0.9-4.1 0.1-0.5-1.5 1.1-2.4 0.4-3.9-2.7-7.8-5.8-12.5-8.4-2.5 0-4.3-0.9-5.2-2-0.8-1-0.2-2.3 1-2.4 0.7 0 1.5-0.2 2.1 0.2 0.1-0.4 0.5-0.9 1-0.9M50 14.6l0.2 0.1c1 0.2 1.5 1.6 2.6 1.1 0 0.7 0.1 1.4-0.1 1.9-0.3 0.8-1.2 0.8-1.9 0.8-6.7-0.4-10.6 2.4-14.7 4.8-1.1 0.7-2.3 1.2-3.2 2.1-4.3 4-9 7.7-10.1 15.1l-0.9 8.2c-0.1 0.9-1.1 1.8-0.9 2.9l0.7 4.9c-0.7-0.7-1.1 0.2-0.9 0.6 0.1 0.3 0.5 1.3 1.1 0.4 0.8 1.5 1.6 4.4 2.7 5.7 3.4 4 7.8 7.6 11.4 11.2 0.9-0.2 1.6-0.2 1.8-0.8 0.3 0.6-0.3 1.2-0.8 1.3 1.6 1 3.4 1.9 5.8 2.1 3.1 0.2 6 0.7 8.7 1.4 1.4-0.4 2.8-0.6 4.3-0.7 0.5 0 0.8-0.8 1.4-1l0.1-1c0.6 0.9 0.5-0.3 0.1-0.9 0.7 0.6 0.9 1.1 1.2 1.5 0-0.3 0.8-1.4 0.8-0.1l0.2-1.3c0.3-0.2 0.4 1.1 0.7 0.2 0.3-0.9 0.9-0.2 1.5-0.5-0.2 0.4-0.1 1.2 0.6 0.7l0.8-0.7c0.5 1.2 1.3 0.7 1.7 0.5 4.4-2.8 8.8-6.1 13-9.4l-0.1 1.3 0.5-1.6c0.5 0.5 0.9 0.1 1.1-0.2 0.6-1 1.4-2 2.7-2.9-1.6 4.3-3.5 7.7-5.9 10.5l-1 1.2c0 0.7-0.2 1.6-1 1.7-0.4 0.1-1.2-0.2-1.8 0.4-0.3 0.4 0.7 1.2-0.1 0.6-0.7-0.5-1.4 0-2.2 0.2-0.6 0.2 0.4 0.8 0.6 1.2 0.2 0.4 0.4 0.8 0.3 1.3l-1.1-1.2c-1.3 0.7-2.1 2-3.2 3-0.5 0.4-0.3 1.1-0.3 1.7-0.7 0-1.5-0.2-1.9 0.2-0.3 0.4-0.2 1-0.2 1.6-1-0.1-1.1-1.6-2-1.3-0.9 0.2-1.9 0.3-2.7 0.8 0.6 1.2-1 0.5-0.8 0.7-1.5-0.9-2.8-1.6-4.4-1-3.4-1.1-7.6-0.6-10.7-0.2 0-0.5 0.1-1-0.1-1.1-0.2 0.5-0.8 0.3-0.7 0.3-1.9-1.3-3.8-2.1-5.8-3.2-1.8 0.2-3.5-0.7-4-1.2-1.4-1.3-3-0.6-4.3-0.9-2.8-0.7-3.8-3.6-4.1-5.6-0.2-1-1-1.4-1.3-1.3-1.3-4.2-3.3-8-4.9-11.9-0.4-1-0.3-2-0.3-3.1 0.5 0.2 1 0.1 0.9-0.6-0.5-3.3-1.7-5.8-3-8.2 0.7-3.4 0.8-7.4 2.4-10.4 1.4-2.7 4-4.1 5.8-6.4 0.6-0.8 0.6-1.9 1.2-2.6 2-2 4-4.1 6.2-5.9 1-0.8 2.2 0 3.7-0.3 0.5-1.8 2.5-3.4 4.4-2.9 0.8 0.2 2.4-1.9 2.9-2.1 0.8-0.3 0.4 0.8 0.4 1.5 1.9-1.5 4.5-2.3 6.9-3.2" fill="black" fill-rule="nonzero" stroke="none" stroke-width="1" stroke-linecap="butt" stroke-linejoin="miter" stroke-miterlimit="10" stroke-dasharray="" stroke-dashoffset="0" font-family="none" font-weight="none" font-size="none" text-anchor="none" style="mix-blend-mode: normal"></path></g><g transform="matrix(1,0,0,1,85.05014689225922,90)"><svg viewBox="0 0 149.89970621548156 180" height="180" width="149.89970621548156"><g><svg viewBox="0 0 149.89970621548156 180" height="180" width="149.89970621548156"><g><svg viewBox="0 0 192 230.55415432449104" height="180" width="149.89970621548156"><g transform="matrix(1,0,0,1,0,139.35119318938925)"><svg viewBox="0 0 192 91.20296113510177" height="91.20296113510177" width="192"><g id="SvgjsG2370"><svg viewBox="0 0 192 91.20296113510177" height="91.20296113510177" width="192" id="SvgjsSvg2369"><g><svg viewBox="0 0 192 91.20296113510177" height="91.20296113510177" width="192"><g transform="matrix(1,0,0,1,0,0)"><svg width="192" viewBox="1.9 -38.5 81.05 38.5" height="91.20296113510177" data-palette-color="url(#a9f25830-dc65-4d6c-8415-19b60c69729e)"><path d="M21.45 0L1.9 0 1.9-1.9Q3.8-1.95 4.98-2.18 6.15-2.4 6.8-3.03 7.45-3.65 7.68-4.73 7.9-5.8 7.9-7.6L7.9-7.6 7.9-30.9Q7.9-32.65 7.73-33.73 7.55-34.8 7.03-35.43 6.5-36.05 5.5-36.27 4.5-36.5 2.9-36.6L2.9-36.6 2.9-38.5 20.45-38.5Q24.95-38.5 28.78-37 32.6-35.5 35.38-32.85 38.15-30.2 39.7-26.55 41.25-22.9 41.25-18.6L41.25-18.6Q41.25-14.5 39.8-11.08 38.35-7.65 35.73-5.2 33.1-2.75 29.45-1.38 25.8 0 21.45 0L21.45 0ZM20.35-36.05L14-36.05Q13.15-36.05 13.15-35.2L13.15-35.2 13.15-8.15Q13.15-2.45 20.6-2.45L20.6-2.45Q27.45-2.45 31.1-6.53 34.75-10.6 34.75-18.5L34.75-18.5Q34.75-22.65 33.75-25.9 32.75-29.15 30.88-31.4 29-33.65 26.35-34.85 23.7-36.05 20.35-36.05L20.35-36.05ZM82.45-38.5L82.95-28.95 80.9-28.95Q80.75-31.1 80.2-32.55 79.65-34 78.62-34.83 77.6-35.65 76.05-36 74.5-36.35 72.35-36.35L72.35-36.35Q70.5-36.35 69.37-36.27 68.25-36.2 67.65-36 67.05-35.8 66.87-35.52 66.7-35.25 66.7-34.8L66.7-34.8 66.7-8.05Q66.7-6.45 66.92-5.3 67.15-4.15 67.82-3.43 68.5-2.7 69.77-2.33 71.05-1.95 73.15-1.9L73.15-1.9 73.15 0 54.25 0 54.25-1.9Q56.35-1.95 57.65-2.33 58.95-2.7 59.62-3.43 60.3-4.15 60.52-5.3 60.75-6.45 60.75-8.05L60.75-8.05 60.75-34.8Q60.75-35.25 60.57-35.52 60.4-35.8 59.87-36 59.35-36.2 58.4-36.27 57.45-36.35 55.85-36.35L55.85-36.35Q53.9-36.35 52.22-36.2 50.55-36.05 49.32-35.33 48.1-34.6 47.35-33.1 46.6-31.6 46.55-28.95L46.55-28.95 44.7-28.95 44.7-38.5 82.45-38.5Z" opacity="1" transform="matrix(1,0,0,1,0,0)" fill="black" class="wordmark-text-0" id="SvgjsPath2368"></path></svg></g></svg></g></svg></g></svg></g><g transform="matrix(1,0,0,1,44.57095418109773,0)"><svg viewBox="0 0 102.85809163780453 126.04249228871066" height="126.04249228871066" width="102.85809163780453"><g><svg xmlns="http://www.w3.org/2000/svg" xmlns:xlink="http://www.w3.org/1999/xlink" version="1.1" x="0" y="0" viewBox="18.933999999999987 5.1690000000000005 122.133 149.66199999999998" style="enable-background:new 0 0 160 160;" xml:space="preserve" height="126.04249228871066" width="102.85809163780453" class="icon-icon-0" data-fill-palette-color="accent" id="SvgjsSvg2367"><path d="M98.036 69.992c-0.221 0.174-0.482 0.302-0.774 0.333l-0.496 0.053c-1.55 0.166-2.865 1.229-3.354 2.709l-2.603 7.893c-0.758 2.3-2.318 4.251-4.394 5.495l-6.011 3.604c-1.703 1.021-3.652 1.562-5.638 1.562h-1.496c-1.985 0-3.935-0.54-5.638-1.562l-6.011-3.604c-2.075-1.244-3.636-3.195-4.394-5.494l-2.602-7.893c-0.488-1.479-1.805-2.543-3.357-2.71l-0.49-0.052c-0.684-0.073-1.24-0.598-1.354-1.277l-1.054-6.322c-0.145-0.866 0.157-1.734 0.807-2.324l1.65-1.499c0.04-0.036 0.068-0.08 0.105-0.117 0.096-0.095 0.185-0.194 0.27-0.299 0.058-0.073 0.114-0.146 0.166-0.223 0.07-0.104 0.132-0.212 0.19-0.323 0.044-0.083 0.089-0.165 0.125-0.251 0.049-0.115 0.087-0.234 0.124-0.354 0.027-0.088 0.057-0.175 0.077-0.264 0.027-0.12 0.039-0.243 0.053-0.367 0.011-0.096 0.027-0.19 0.029-0.286 0.001-0.023 0.007-0.044 0.007-0.067l0.109-9.856c0.018-1.584 0.731-3.071 1.958-4.078 1.2-0.986 2.688-1.377 4.193-1.092 10.308 1.927 23.578 0.757 32.7-1.7V32.34c-7.562 2.395-20.836 4.082-31.413 2.103-3.519-0.658-7.137 0.276-9.922 2.563-0.835 0.686-1.566 1.467-2.185 2.323L46.1 34.555c-0.357-1.293-0.184-2.645 0.49-3.805s1.761-1.982 3.061-2.313l3.436-0.875c1.551-0.395 2.636-1.792 2.636-3.392v-0.163c0-6.527 5.311-11.837 11.838-11.837 3.143 0 6.201 0.649 9.092 1.929 6.239 2.764 17.362 6.204 27.539 1.73 0.018 0.768-0.014 1.509-0.087 2.229h7.02c0.192-2.698-0.052-5.583-0.736-8.65-0.258-1.16-1.088-2.11-2.202-2.522-1.113-0.413-2.362-0.232-3.313 0.483C96.43 13.7 85.345 10.293 79.486 7.698c-3.789-1.678-7.802-2.529-11.927-2.529-9.504 0-17.387 7.075-18.658 16.234l-0.979 0.25c-3.137 0.799-5.76 2.782-7.386 5.582s-2.046 6.062-1.184 9.183l5.178 18.751-0.057 0.052c-2.418 2.197-3.542 5.434-3.004 8.656l1.053 6.321c0.542 3.259 2.928 5.879 6.021 6.791l2.038 6.184c0.797 2.414 2.117 4.6 3.842 6.416-9.875 0.001-18.048 7.43-19.226 16.991l-2.774 0.843c-8.068 2.45-13.489 9.762-13.489 18.193v25.715c0 1.933 1.567 3.5 3.5 3.5h103.172c1.933 0 3.5-1.567 3.5-3.5v-25.715c0-8.432-5.421-15.743-13.488-18.193l-2.775-0.843c-1.178-9.562-9.351-16.99-19.226-16.991 1.725-1.816 3.045-4.002 3.842-6.417l2.039-6.183c2.933-0.864 5.21-3.274 5.902-6.301h-3.567C100.496 70.688 99.22 70.434 98.036 69.992zM63.323 102.758v-7.102l0.711 0.426c2.79 1.673 5.984 2.558 9.237 2.558h1.496c3.253 0 6.447-0.885 9.237-2.558l0.711-0.426v7.102c0 0.65 0.189 1.251 0.498 1.773-1.454 4.807-5.92 8.318-11.194 8.318s-9.741-3.511-11.194-8.318C63.134 104.01 63.323 103.408 63.323 102.758zM58.059 106.051c2.098 6.823 8.458 11.799 15.96 11.799 7.502 0 13.862-4.975 15.96-11.799l1.153 0.415c0.728 0.262 1.313 0.823 1.607 1.54 0.284 0.694 0.266 1.44-0.052 2.101-3.438 7.154-10.504 11.599-18.439 11.599-0.079 0-0.153 0.016-0.229 0.023-0.077-0.007-0.151-0.023-0.229-0.023-7.936 0-15.001-4.444-18.439-11.599-0.317-0.66-0.336-1.406-0.052-2.1 0.294-0.718 0.88-1.279 1.608-1.541L58.059 106.051zM92.823 137.768c0 1.002-0.815 1.817-1.818 1.817-1.002 0-1.817-0.815-1.817-1.817 0-1.003 0.815-1.818 1.817-1.818C92.008 135.95 92.823 136.765 92.823 137.768zM58.852 137.768c0 1.002-0.815 1.817-1.817 1.817-1.003 0-1.818-0.815-1.818-1.817 0-1.003 0.815-1.818 1.818-1.818C58.036 135.95 58.852 136.765 58.852 137.768zM105.987 108.961v0.257c0 1.541 1.008 2.901 2.482 3.349l5.112 1.553c5.099 1.549 8.523 6.168 8.523 11.496v22.215H25.934v-22.215c0-5.328 3.425-9.947 8.523-11.496l5.112-1.553c1.475-0.447 2.483-1.808 2.483-3.349v-0.257c0-6.822 5.551-12.373 12.374-12.373h1.897v4.773l-1.109 0.399c-2.058 0.74-3.713 2.326-4.542 4.351-0.815 1.99-0.752 4.236 0.173 6.161 0.996 2.073 2.247 3.955 3.689 5.635v13.523c-2.525 1-4.318 3.461-4.318 6.337 0 3.759 3.059 6.817 6.818 6.817 3.759 0 6.817-3.059 6.817-6.817 0-2.876-1.793-5.337-4.317-6.337v-9.069c4.112 2.78 9.028 4.343 14.256 4.343 0.079 0 0.153-0.016 0.229-0.023 0.077 0.007 0.151 0.023 0.229 0.023 5.228 0 10.144-1.563 14.256-4.343v9.069c-2.524 1-4.317 3.461-4.317 6.337 0 3.759 3.059 6.817 6.817 6.817 3.76 0 6.818-3.059 6.818-6.817 0-2.877-1.793-5.337-4.318-6.337v-13.523c1.443-1.68 2.693-3.562 3.689-5.635 0.925-1.925 0.988-4.17 0.173-6.161-0.829-2.024-2.484-3.61-4.541-4.351l-1.11-0.4v-4.772h1.898C100.437 96.588 105.987 102.139 105.987 108.961z" fill="black"></path><path d="M132.672 20.559h-30.84c-4.629 0-8.395 3.766-8.395 8.395v30.839c0 4.629 3.766 8.395 8.395 8.395h6.6v11.024c0 1.02 0.619 1.938 1.565 2.318 0.303 0.122 0.62 0.182 0.934 0.182 0.667 0 1.321-0.267 1.803-0.767l12.276-12.757h7.662c4.629 0 8.395-3.766 8.395-8.395V28.954C141.066 24.325 137.301 20.559 132.672 20.559zM136.066 59.793c0 1.872-1.522 3.395-3.395 3.395h-8.726c-0.68 0-1.33 0.277-1.802 0.767l-8.713 9.054v-7.321c0-1.381-1.119-2.5-2.5-2.5h-9.1c-1.872 0-3.395-1.523-3.395-3.395V28.954c0-1.872 1.522-3.395 3.395-3.395h30.84c1.872 0 3.395 1.523 3.395 3.395V59.793z" fill="black"></path><path d="M110.426 40.456c1.062-0.882 1.208-2.458 0.325-3.521-0.883-1.064-2.461-1.208-3.521-0.325l-6.47 5.375c-0.571 0.475-0.902 1.18-0.902 1.923s0.331 1.448 0.902 1.923l6.47 5.375c0.467 0.388 1.033 0.577 1.597 0.577 0.717 0 1.43-0.307 1.924-0.902 0.883-1.062 0.736-2.638-0.325-3.521l-4.155-3.452L110.426 40.456z" fill="black"></path><path d="M126.551 36.61c-1.061-0.881-2.638-0.738-3.521 0.325-0.883 1.062-0.736 2.638 0.325 3.521l4.155 3.452-4.155 3.452c-1.062 0.882-1.208 2.458-0.325 3.521 0.494 0.595 1.207 0.902 1.924 0.902 0.563 0 1.13-0.189 1.597-0.577l6.47-5.375c0.571-0.475 0.902-1.18 0.902-1.923s-0.331-1.448-0.902-1.923L126.551 36.61z" fill="black"></path><path d="M120.032 34.517c-1.308-0.439-2.726 0.269-3.164 1.577l-4.698 14.042c-0.438 1.31 0.269 2.726 1.578 3.164 0.263 0.088 0.53 0.13 0.793 0.13 1.046 0 2.021-0.661 2.371-1.707l4.698-14.042C122.048 36.371 121.342 34.955 120.032 34.517z" fill="black"></path></svg></g></svg></g><g></g></svg></g></svg></g></svg></g></svg></g><defs><mask></mask></defs></svg><rect width="320" height="360" fill="black" stroke="none" visibility="hidden"></rect></g></mask><mask><g id="SvgjsG2366"><svg viewBox="0 0 320 360" height="360" width="320"><g><svg></svg></g><g><svg viewBox="0 0 320 360" height="360" width="320"><g><path transform="translate(-74.99272,-51.79039) scale(4.65793,4.65793)" d="M20.6 59.9l0.8 1-0.4-1.3c-0.1-0.6-0.8 0.1-0.4 0.3M21.5 59.3c0.3 0.5 0.6 1 0.6 1.5 0 0.7 0.6 1 1.1 1.2-0.7-0.8-1.1-3-1.7-2.7M59.9 16.9c1.7 0 3.3-0.2 5.1 0.2 4.4 1.1 8.1 3.3 10.6 6.4l7 11.2c0.3 2.8 0.9 5.9 0.8 9.3 0.7 0 0.6-1 1.4-1.2-0.8 2-1.2 4.5-1.4 7.4-0.5-1.6 0-4 0.1-5.3-0.7 1.1-1.1 0.3-1.1-0.2 0.1-0.8-0.3-0.7-0.6-1-1.1-1-1.8-2.1-2.6-3.8 0.5-1.3 0.6-3.2-1-4.2-0.5-0.3-1.1-0.8-1.4-1.6-0.4-1.1-1.1-2.4-0.9-4.1 0.1-0.5-1.5 1.1-2.4 0.4-3.9-2.7-7.8-5.8-12.5-8.4-2.5 0-4.3-0.9-5.2-2-0.8-1-0.2-2.3 1-2.4 0.7 0 1.5-0.2 2.1 0.2 0.1-0.4 0.5-0.9 1-0.9M50 14.6l0.2 0.1c1 0.2 1.5 1.6 2.6 1.1 0 0.7 0.1 1.4-0.1 1.9-0.3 0.8-1.2 0.8-1.9 0.8-6.7-0.4-10.6 2.4-14.7 4.8-1.1 0.7-2.3 1.2-3.2 2.1-4.3 4-9 7.7-10.1 15.1l-0.9 8.2c-0.1 0.9-1.1 1.8-0.9 2.9l0.7 4.9c-0.7-0.7-1.1 0.2-0.9 0.6 0.1 0.3 0.5 1.3 1.1 0.4 0.8 1.5 1.6 4.4 2.7 5.7 3.4 4 7.8 7.6 11.4 11.2 0.9-0.2 1.6-0.2 1.8-0.8 0.3 0.6-0.3 1.2-0.8 1.3 1.6 1 3.4 1.9 5.8 2.1 3.1 0.2 6 0.7 8.7 1.4 1.4-0.4 2.8-0.6 4.3-0.7 0.5 0 0.8-0.8 1.4-1l0.1-1c0.6 0.9 0.5-0.3 0.1-0.9 0.7 0.6 0.9 1.1 1.2 1.5 0-0.3 0.8-1.4 0.8-0.1l0.2-1.3c0.3-0.2 0.4 1.1 0.7 0.2 0.3-0.9 0.9-0.2 1.5-0.5-0.2 0.4-0.1 1.2 0.6 0.7l0.8-0.7c0.5 1.2 1.3 0.7 1.7 0.5 4.4-2.8 8.8-6.1 13-9.4l-0.1 1.3 0.5-1.6c0.5 0.5 0.9 0.1 1.1-0.2 0.6-1 1.4-2 2.7-2.9-1.6 4.3-3.5 7.7-5.9 10.5l-1 1.2c0 0.7-0.2 1.6-1 1.7-0.4 0.1-1.2-0.2-1.8 0.4-0.3 0.4 0.7 1.2-0.1 0.6-0.7-0.5-1.4 0-2.2 0.2-0.6 0.2 0.4 0.8 0.6 1.2 0.2 0.4 0.4 0.8 0.3 1.3l-1.1-1.2c-1.3 0.7-2.1 2-3.2 3-0.5 0.4-0.3 1.1-0.3 1.7-0.7 0-1.5-0.2-1.9 0.2-0.3 0.4-0.2 1-0.2 1.6-1-0.1-1.1-1.6-2-1.3-0.9 0.2-1.9 0.3-2.7 0.8 0.6 1.2-1 0.5-0.8 0.7-1.5-0.9-2.8-1.6-4.4-1-3.4-1.1-7.6-0.6-10.7-0.2 0-0.5 0.1-1-0.1-1.1-0.2 0.5-0.8 0.3-0.7 0.3-1.9-1.3-3.8-2.1-5.8-3.2-1.8 0.2-3.5-0.7-4-1.2-1.4-1.3-3-0.6-4.3-0.9-2.8-0.7-3.8-3.6-4.1-5.6-0.2-1-1-1.4-1.3-1.3-1.3-4.2-3.3-8-4.9-11.9-0.4-1-0.3-2-0.3-3.1 0.5 0.2 1 0.1 0.9-0.6-0.5-3.3-1.7-5.8-3-8.2 0.7-3.4 0.8-7.4 2.4-10.4 1.4-2.7 4-4.1 5.8-6.4 0.6-0.8 0.6-1.9 1.2-2.6 2-2 4-4.1 6.2-5.9 1-0.8 2.2 0 3.7-0.3 0.5-1.8 2.5-3.4 4.4-2.9 0.8 0.2 2.4-1.9 2.9-2.1 0.8-0.3 0.4 0.8 0.4 1.5 1.9-1.5 4.5-2.3 6.9-3.2" fill="black" fill-rule="nonzero" stroke="none" stroke-width="1" stroke-linecap="butt" stroke-linejoin="miter" stroke-miterlimit="10" stroke-dasharray="" stroke-dashoffset="0" font-family="none" font-weight="none" font-size="none" text-anchor="none" style="mix-blend-mode: normal"></path></g><g transform="matrix(1,0,0,1,85.05014689225922,90)"><svg viewBox="0 0 149.89970621548156 180" height="180" width="149.89970621548156"><g><svg viewBox="0 0 149.89970621548156 180" height="180" width="149.89970621548156"><g><svg viewBox="0 0 192 230.55415432449104" height="180" width="149.89970621548156"><g transform="matrix(1,0,0,1,0,139.35119318938925)"><svg viewBox="0 0 192 91.20296113510177" height="91.20296113510177" width="192"><g id="SvgjsG2365"><svg viewBox="0 0 192 91.20296113510177" height="91.20296113510177" width="192" id="SvgjsSvg2364"><g><svg viewBox="0 0 192 91.20296113510177" height="91.20296113510177" width="192"><g transform="matrix(1,0,0,1,0,0)"><svg width="192" viewBox="1.9 -38.5 81.05 38.5" height="91.20296113510177" data-palette-color="url(#a9f25830-dc65-4d6c-8415-19b60c69729e)"></svg></g></svg></g></svg></g></svg></g><g transform="matrix(1,0,0,1,44.57095418109773,0)"><svg viewBox="0 0 102.85809163780453 126.04249228871066" height="126.04249228871066" width="102.85809163780453"><g><svg xmlns="http://www.w3.org/2000/svg" xmlns:xlink="http://www.w3.org/1999/xlink" version="1.1" x="0" y="0" viewBox="18.933999999999987 5.1690000000000005 122.133 149.66199999999998" style="enable-background:new 0 0 160 160;" xml:space="preserve" height="126.04249228871066" width="102.85809163780453" class="icon-icon-0" data-fill-palette-color="accent" id="SvgjsSvg2363"><path d="M98.036 69.992c-0.221 0.174-0.482 0.302-0.774 0.333l-0.496 0.053c-1.55 0.166-2.865 1.229-3.354 2.709l-2.603 7.893c-0.758 2.3-2.318 4.251-4.394 5.495l-6.011 3.604c-1.703 1.021-3.652 1.562-5.638 1.562h-1.496c-1.985 0-3.935-0.54-5.638-1.562l-6.011-3.604c-2.075-1.244-3.636-3.195-4.394-5.494l-2.602-7.893c-0.488-1.479-1.805-2.543-3.357-2.71l-0.49-0.052c-0.684-0.073-1.24-0.598-1.354-1.277l-1.054-6.322c-0.145-0.866 0.157-1.734 0.807-2.324l1.65-1.499c0.04-0.036 0.068-0.08 0.105-0.117 0.096-0.095 0.185-0.194 0.27-0.299 0.058-0.073 0.114-0.146 0.166-0.223 0.07-0.104 0.132-0.212 0.19-0.323 0.044-0.083 0.089-0.165 0.125-0.251 0.049-0.115 0.087-0.234 0.124-0.354 0.027-0.088 0.057-0.175 0.077-0.264 0.027-0.12 0.039-0.243 0.053-0.367 0.011-0.096 0.027-0.19 0.029-0.286 0.001-0.023 0.007-0.044 0.007-0.067l0.109-9.856c0.018-1.584 0.731-3.071 1.958-4.078 1.2-0.986 2.688-1.377 4.193-1.092 10.308 1.927 23.578 0.757 32.7-1.7V32.34c-7.562 2.395-20.836 4.082-31.413 2.103-3.519-0.658-7.137 0.276-9.922 2.563-0.835 0.686-1.566 1.467-2.185 2.323L46.1 34.555c-0.357-1.293-0.184-2.645 0.49-3.805s1.761-1.982 3.061-2.313l3.436-0.875c1.551-0.395 2.636-1.792 2.636-3.392v-0.163c0-6.527 5.311-11.837 11.838-11.837 3.143 0 6.201 0.649 9.092 1.929 6.239 2.764 17.362 6.204 27.539 1.73 0.018 0.768-0.014 1.509-0.087 2.229h7.02c0.192-2.698-0.052-5.583-0.736-8.65-0.258-1.16-1.088-2.11-2.202-2.522-1.113-0.413-2.362-0.232-3.313 0.483C96.43 13.7 85.345 10.293 79.486 7.698c-3.789-1.678-7.802-2.529-11.927-2.529-9.504 0-17.387 7.075-18.658 16.234l-0.979 0.25c-3.137 0.799-5.76 2.782-7.386 5.582s-2.046 6.062-1.184 9.183l5.178 18.751-0.057 0.052c-2.418 2.197-3.542 5.434-3.004 8.656l1.053 6.321c0.542 3.259 2.928 5.879 6.021 6.791l2.038 6.184c0.797 2.414 2.117 4.6 3.842 6.416-9.875 0.001-18.048 7.43-19.226 16.991l-2.774 0.843c-8.068 2.45-13.489 9.762-13.489 18.193v25.715c0 1.933 1.567 3.5 3.5 3.5h103.172c1.933 0 3.5-1.567 3.5-3.5v-25.715c0-8.432-5.421-15.743-13.488-18.193l-2.775-0.843c-1.178-9.562-9.351-16.99-19.226-16.991 1.725-1.816 3.045-4.002 3.842-6.417l2.039-6.183c2.933-0.864 5.21-3.274 5.902-6.301h-3.567C100.496 70.688 99.22 70.434 98.036 69.992zM63.323 102.758v-7.102l0.711 0.426c2.79 1.673 5.984 2.558 9.237 2.558h1.496c3.253 0 6.447-0.885 9.237-2.558l0.711-0.426v7.102c0 0.65 0.189 1.251 0.498 1.773-1.454 4.807-5.92 8.318-11.194 8.318s-9.741-3.511-11.194-8.318C63.134 104.01 63.323 103.408 63.323 102.758zM58.059 106.051c2.098 6.823 8.458 11.799 15.96 11.799 7.502 0 13.862-4.975 15.96-11.799l1.153 0.415c0.728 0.262 1.313 0.823 1.607 1.54 0.284 0.694 0.266 1.44-0.052 2.101-3.438 7.154-10.504 11.599-18.439 11.599-0.079 0-0.153 0.016-0.229 0.023-0.077-0.007-0.151-0.023-0.229-0.023-7.936 0-15.001-4.444-18.439-11.599-0.317-0.66-0.336-1.406-0.052-2.1 0.294-0.718 0.88-1.279 1.608-1.541L58.059 106.051zM92.823 137.768c0 1.002-0.815 1.817-1.818 1.817-1.002 0-1.817-0.815-1.817-1.817 0-1.003 0.815-1.818 1.817-1.818C92.008 135.95 92.823 136.765 92.823 137.768zM58.852 137.768c0 1.002-0.815 1.817-1.817 1.817-1.003 0-1.818-0.815-1.818-1.817 0-1.003 0.815-1.818 1.818-1.818C58.036 135.95 58.852 136.765 58.852 137.768zM105.987 108.961v0.257c0 1.541 1.008 2.901 2.482 3.349l5.112 1.553c5.099 1.549 8.523 6.168 8.523 11.496v22.215H25.934v-22.215c0-5.328 3.425-9.947 8.523-11.496l5.112-1.553c1.475-0.447 2.483-1.808 2.483-3.349v-0.257c0-6.822 5.551-12.373 12.374-12.373h1.897v4.773l-1.109 0.399c-2.058 0.74-3.713 2.326-4.542 4.351-0.815 1.99-0.752 4.236 0.173 6.161 0.996 2.073 2.247 3.955 3.689 5.635v13.523c-2.525 1-4.318 3.461-4.318 6.337 0 3.759 3.059 6.817 6.818 6.817 3.759 0 6.817-3.059 6.817-6.817 0-2.876-1.793-5.337-4.317-6.337v-9.069c4.112 2.78 9.028 4.343 14.256 4.343 0.079 0 0.153-0.016 0.229-0.023 0.077 0.007 0.151 0.023 0.229 0.023 5.228 0 10.144-1.563 14.256-4.343v9.069c-2.524 1-4.317 3.461-4.317 6.337 0 3.759 3.059 6.817 6.817 6.817 3.76 0 6.818-3.059 6.818-6.817 0-2.877-1.793-5.337-4.318-6.337v-13.523c1.443-1.68 2.693-3.562 3.689-5.635 0.925-1.925 0.988-4.17 0.173-6.161-0.829-2.024-2.484-3.61-4.541-4.351l-1.11-0.4v-4.772h1.898C100.437 96.588 105.987 102.139 105.987 108.961z" fill="black"></path><path d="M132.672 20.559h-30.84c-4.629 0-8.395 3.766-8.395 8.395v30.839c0 4.629 3.766 8.395 8.395 8.395h6.6v11.024c0 1.02 0.619 1.938 1.565 2.318 0.303 0.122 0.62 0.182 0.934 0.182 0.667 0 1.321-0.267 1.803-0.767l12.276-12.757h7.662c4.629 0 8.395-3.766 8.395-8.395V28.954C141.066 24.325 137.301 20.559 132.672 20.559zM136.066 59.793c0 1.872-1.522 3.395-3.395 3.395h-8.726c-0.68 0-1.33 0.277-1.802 0.767l-8.713 9.054v-7.321c0-1.381-1.119-2.5-2.5-2.5h-9.1c-1.872 0-3.395-1.523-3.395-3.395V28.954c0-1.872 1.522-3.395 3.395-3.395h30.84c1.872 0 3.395 1.523 3.395 3.395V59.793z" fill="black"></path><path d="M110.426 40.456c1.062-0.882 1.208-2.458 0.325-3.521-0.883-1.064-2.461-1.208-3.521-0.325l-6.47 5.375c-0.571 0.475-0.902 1.18-0.902 1.923s0.331 1.448 0.902 1.923l6.47 5.375c0.467 0.388 1.033 0.577 1.597 0.577 0.717 0 1.43-0.307 1.924-0.902 0.883-1.062 0.736-2.638-0.325-3.521l-4.155-3.452L110.426 40.456z" fill="black"></path><path d="M126.551 36.61c-1.061-0.881-2.638-0.738-3.521 0.325-0.883 1.062-0.736 2.638 0.325 3.521l4.155 3.452-4.155 3.452c-1.062 0.882-1.208 2.458-0.325 3.521 0.494 0.595 1.207 0.902 1.924 0.902 0.563 0 1.13-0.189 1.597-0.577l6.47-5.375c0.571-0.475 0.902-1.18 0.902-1.923s-0.331-1.448-0.902-1.923L126.551 36.61z" fill="black"></path><path d="M120.032 34.517c-1.308-0.439-2.726 0.269-3.164 1.577l-4.698 14.042c-0.438 1.31 0.269 2.726 1.578 3.164 0.263 0.088 0.53 0.13 0.793 0.13 1.046 0 2.021-0.661 2.371-1.707l4.698-14.042C122.048 36.371 121.342 34.955 120.032 34.517z" fill="black"></path></svg></g></svg></g><g></g></svg></g></svg></g></svg></g></svg></g><defs><mask></mask></defs><mask><g id="SvgjsG2362"><svg viewBox="0 0 320 360" height="360" width="320"><g><svg></svg></g><g><svg viewBox="0 0 320 360" height="360" width="320"><g><path transform="translate(-74.99272,-51.79039) scale(4.65793,4.65793)" d="M20.6 59.9l0.8 1-0.4-1.3c-0.1-0.6-0.8 0.1-0.4 0.3M21.5 59.3c0.3 0.5 0.6 1 0.6 1.5 0 0.7 0.6 1 1.1 1.2-0.7-0.8-1.1-3-1.7-2.7M59.9 16.9c1.7 0 3.3-0.2 5.1 0.2 4.4 1.1 8.1 3.3 10.6 6.4l7 11.2c0.3 2.8 0.9 5.9 0.8 9.3 0.7 0 0.6-1 1.4-1.2-0.8 2-1.2 4.5-1.4 7.4-0.5-1.6 0-4 0.1-5.3-0.7 1.1-1.1 0.3-1.1-0.2 0.1-0.8-0.3-0.7-0.6-1-1.1-1-1.8-2.1-2.6-3.8 0.5-1.3 0.6-3.2-1-4.2-0.5-0.3-1.1-0.8-1.4-1.6-0.4-1.1-1.1-2.4-0.9-4.1 0.1-0.5-1.5 1.1-2.4 0.4-3.9-2.7-7.8-5.8-12.5-8.4-2.5 0-4.3-0.9-5.2-2-0.8-1-0.2-2.3 1-2.4 0.7 0 1.5-0.2 2.1 0.2 0.1-0.4 0.5-0.9 1-0.9M50 14.6l0.2 0.1c1 0.2 1.5 1.6 2.6 1.1 0 0.7 0.1 1.4-0.1 1.9-0.3 0.8-1.2 0.8-1.9 0.8-6.7-0.4-10.6 2.4-14.7 4.8-1.1 0.7-2.3 1.2-3.2 2.1-4.3 4-9 7.7-10.1 15.1l-0.9 8.2c-0.1 0.9-1.1 1.8-0.9 2.9l0.7 4.9c-0.7-0.7-1.1 0.2-0.9 0.6 0.1 0.3 0.5 1.3 1.1 0.4 0.8 1.5 1.6 4.4 2.7 5.7 3.4 4 7.8 7.6 11.4 11.2 0.9-0.2 1.6-0.2 1.8-0.8 0.3 0.6-0.3 1.2-0.8 1.3 1.6 1 3.4 1.9 5.8 2.1 3.1 0.2 6 0.7 8.7 1.4 1.4-0.4 2.8-0.6 4.3-0.7 0.5 0 0.8-0.8 1.4-1l0.1-1c0.6 0.9 0.5-0.3 0.1-0.9 0.7 0.6 0.9 1.1 1.2 1.5 0-0.3 0.8-1.4 0.8-0.1l0.2-1.3c0.3-0.2 0.4 1.1 0.7 0.2 0.3-0.9 0.9-0.2 1.5-0.5-0.2 0.4-0.1 1.2 0.6 0.7l0.8-0.7c0.5 1.2 1.3 0.7 1.7 0.5 4.4-2.8 8.8-6.1 13-9.4l-0.1 1.3 0.5-1.6c0.5 0.5 0.9 0.1 1.1-0.2 0.6-1 1.4-2 2.7-2.9-1.6 4.3-3.5 7.7-5.9 10.5l-1 1.2c0 0.7-0.2 1.6-1 1.7-0.4 0.1-1.2-0.2-1.8 0.4-0.3 0.4 0.7 1.2-0.1 0.6-0.7-0.5-1.4 0-2.2 0.2-0.6 0.2 0.4 0.8 0.6 1.2 0.2 0.4 0.4 0.8 0.3 1.3l-1.1-1.2c-1.3 0.7-2.1 2-3.2 3-0.5 0.4-0.3 1.1-0.3 1.7-0.7 0-1.5-0.2-1.9 0.2-0.3 0.4-0.2 1-0.2 1.6-1-0.1-1.1-1.6-2-1.3-0.9 0.2-1.9 0.3-2.7 0.8 0.6 1.2-1 0.5-0.8 0.7-1.5-0.9-2.8-1.6-4.4-1-3.4-1.1-7.6-0.6-10.7-0.2 0-0.5 0.1-1-0.1-1.1-0.2 0.5-0.8 0.3-0.7 0.3-1.9-1.3-3.8-2.1-5.8-3.2-1.8 0.2-3.5-0.7-4-1.2-1.4-1.3-3-0.6-4.3-0.9-2.8-0.7-3.8-3.6-4.1-5.6-0.2-1-1-1.4-1.3-1.3-1.3-4.2-3.3-8-4.9-11.9-0.4-1-0.3-2-0.3-3.1 0.5 0.2 1 0.1 0.9-0.6-0.5-3.3-1.7-5.8-3-8.2 0.7-3.4 0.8-7.4 2.4-10.4 1.4-2.7 4-4.1 5.8-6.4 0.6-0.8 0.6-1.9 1.2-2.6 2-2 4-4.1 6.2-5.9 1-0.8 2.2 0 3.7-0.3 0.5-1.8 2.5-3.4 4.4-2.9 0.8 0.2 2.4-1.9 2.9-2.1 0.8-0.3 0.4 0.8 0.4 1.5 1.9-1.5 4.5-2.3 6.9-3.2" fill="black" fill-rule="nonzero" stroke="none" stroke-width="1" stroke-linecap="butt" stroke-linejoin="miter" stroke-miterlimit="10" stroke-dasharray="" stroke-dashoffset="0" font-family="none" font-weight="none" font-size="none" text-anchor="none" style="mix-blend-mode: normal"></path></g><g transform="matrix(1,0,0,1,85.05014689225922,90)"><svg viewBox="0 0 149.89970621548156 180" height="180" width="149.89970621548156"><g><svg viewBox="0 0 149.89970621548156 180" height="180" width="149.89970621548156"><g><svg viewBox="0 0 192 230.55415432449104" height="180" width="149.89970621548156"><g transform="matrix(1,0,0,1,0,139.35119318938925)"><svg viewBox="0 0 192 91.20296113510177" height="91.20296113510177" width="192"><g id="SvgjsG2361"><svg viewBox="0 0 192 91.20296113510177" height="91.20296113510177" width="192" id="SvgjsSvg2360"><g><svg viewBox="0 0 192 91.20296113510177" height="91.20296113510177" width="192"><g transform="matrix(1,0,0,1,0,0)"><svg width="192" viewBox="1.9 -38.5 81.05 38.5" height="91.20296113510177" data-palette-color="url(#a9f25830-dc65-4d6c-8415-19b60c69729e)"><path d="M21.45 0L1.9 0 1.9-1.9Q3.8-1.95 4.98-2.18 6.15-2.4 6.8-3.03 7.45-3.65 7.68-4.73 7.9-5.8 7.9-7.6L7.9-7.6 7.9-30.9Q7.9-32.65 7.73-33.73 7.55-34.8 7.03-35.43 6.5-36.05 5.5-36.27 4.5-36.5 2.9-36.6L2.9-36.6 2.9-38.5 20.45-38.5Q24.95-38.5 28.78-37 32.6-35.5 35.38-32.85 38.15-30.2 39.7-26.55 41.25-22.9 41.25-18.6L41.25-18.6Q41.25-14.5 39.8-11.08 38.35-7.65 35.73-5.2 33.1-2.75 29.45-1.38 25.8 0 21.45 0L21.45 0ZM20.35-36.05L14-36.05Q13.15-36.05 13.15-35.2L13.15-35.2 13.15-8.15Q13.15-2.45 20.6-2.45L20.6-2.45Q27.45-2.45 31.1-6.53 34.75-10.6 34.75-18.5L34.75-18.5Q34.75-22.65 33.75-25.9 32.75-29.15 30.88-31.4 29-33.65 26.35-34.85 23.7-36.05 20.35-36.05L20.35-36.05ZM82.45-38.5L82.95-28.95 80.9-28.95Q80.75-31.1 80.2-32.55 79.65-34 78.62-34.83 77.6-35.65 76.05-36 74.5-36.35 72.35-36.35L72.35-36.35Q70.5-36.35 69.37-36.27 68.25-36.2 67.65-36 67.05-35.8 66.87-35.52 66.7-35.25 66.7-34.8L66.7-34.8 66.7-8.05Q66.7-6.45 66.92-5.3 67.15-4.15 67.82-3.43 68.5-2.7 69.77-2.33 71.05-1.95 73.15-1.9L73.15-1.9 73.15 0 54.25 0 54.25-1.9Q56.35-1.95 57.65-2.33 58.95-2.7 59.62-3.43 60.3-4.15 60.52-5.3 60.75-6.45 60.75-8.05L60.75-8.05 60.75-34.8Q60.75-35.25 60.57-35.52 60.4-35.8 59.87-36 59.35-36.2 58.4-36.27 57.45-36.35 55.85-36.35L55.85-36.35Q53.9-36.35 52.22-36.2 50.55-36.05 49.32-35.33 48.1-34.6 47.35-33.1 46.6-31.6 46.55-28.95L46.55-28.95 44.7-28.95 44.7-38.5 82.45-38.5Z" opacity="1" transform="matrix(1,0,0,1,0,0)" fill="black" class="wordmark-text-0" id="SvgjsPath2359"></path></svg></g></svg></g></svg></g></svg></g><g transform="matrix(1,0,0,1,44.57095418109773,0)"><svg viewBox="0 0 102.85809163780453 126.04249228871066" height="126.04249228871066" width="102.85809163780453"><g><svg xmlns="http://www.w3.org/2000/svg" xmlns:xlink="http://www.w3.org/1999/xlink" version="1.1" x="0" y="0" viewBox="18.933999999999987 5.1690000000000005 122.133 149.66199999999998" style="enable-background:new 0 0 160 160;" xml:space="preserve" height="126.04249228871066" width="102.85809163780453" class="icon-icon-0" data-fill-palette-color="accent" id="SvgjsSvg2358"><path d="M98.036 69.992c-0.221 0.174-0.482 0.302-0.774 0.333l-0.496 0.053c-1.55 0.166-2.865 1.229-3.354 2.709l-2.603 7.893c-0.758 2.3-2.318 4.251-4.394 5.495l-6.011 3.604c-1.703 1.021-3.652 1.562-5.638 1.562h-1.496c-1.985 0-3.935-0.54-5.638-1.562l-6.011-3.604c-2.075-1.244-3.636-3.195-4.394-5.494l-2.602-7.893c-0.488-1.479-1.805-2.543-3.357-2.71l-0.49-0.052c-0.684-0.073-1.24-0.598-1.354-1.277l-1.054-6.322c-0.145-0.866 0.157-1.734 0.807-2.324l1.65-1.499c0.04-0.036 0.068-0.08 0.105-0.117 0.096-0.095 0.185-0.194 0.27-0.299 0.058-0.073 0.114-0.146 0.166-0.223 0.07-0.104 0.132-0.212 0.19-0.323 0.044-0.083 0.089-0.165 0.125-0.251 0.049-0.115 0.087-0.234 0.124-0.354 0.027-0.088 0.057-0.175 0.077-0.264 0.027-0.12 0.039-0.243 0.053-0.367 0.011-0.096 0.027-0.19 0.029-0.286 0.001-0.023 0.007-0.044 0.007-0.067l0.109-9.856c0.018-1.584 0.731-3.071 1.958-4.078 1.2-0.986 2.688-1.377 4.193-1.092 10.308 1.927 23.578 0.757 32.7-1.7V32.34c-7.562 2.395-20.836 4.082-31.413 2.103-3.519-0.658-7.137 0.276-9.922 2.563-0.835 0.686-1.566 1.467-2.185 2.323L46.1 34.555c-0.357-1.293-0.184-2.645 0.49-3.805s1.761-1.982 3.061-2.313l3.436-0.875c1.551-0.395 2.636-1.792 2.636-3.392v-0.163c0-6.527 5.311-11.837 11.838-11.837 3.143 0 6.201 0.649 9.092 1.929 6.239 2.764 17.362 6.204 27.539 1.73 0.018 0.768-0.014 1.509-0.087 2.229h7.02c0.192-2.698-0.052-5.583-0.736-8.65-0.258-1.16-1.088-2.11-2.202-2.522-1.113-0.413-2.362-0.232-3.313 0.483C96.43 13.7 85.345 10.293 79.486 7.698c-3.789-1.678-7.802-2.529-11.927-2.529-9.504 0-17.387 7.075-18.658 16.234l-0.979 0.25c-3.137 0.799-5.76 2.782-7.386 5.582s-2.046 6.062-1.184 9.183l5.178 18.751-0.057 0.052c-2.418 2.197-3.542 5.434-3.004 8.656l1.053 6.321c0.542 3.259 2.928 5.879 6.021 6.791l2.038 6.184c0.797 2.414 2.117 4.6 3.842 6.416-9.875 0.001-18.048 7.43-19.226 16.991l-2.774 0.843c-8.068 2.45-13.489 9.762-13.489 18.193v25.715c0 1.933 1.567 3.5 3.5 3.5h103.172c1.933 0 3.5-1.567 3.5-3.5v-25.715c0-8.432-5.421-15.743-13.488-18.193l-2.775-0.843c-1.178-9.562-9.351-16.99-19.226-16.991 1.725-1.816 3.045-4.002 3.842-6.417l2.039-6.183c2.933-0.864 5.21-3.274 5.902-6.301h-3.567C100.496 70.688 99.22 70.434 98.036 69.992zM63.323 102.758v-7.102l0.711 0.426c2.79 1.673 5.984 2.558 9.237 2.558h1.496c3.253 0 6.447-0.885 9.237-2.558l0.711-0.426v7.102c0 0.65 0.189 1.251 0.498 1.773-1.454 4.807-5.92 8.318-11.194 8.318s-9.741-3.511-11.194-8.318C63.134 104.01 63.323 103.408 63.323 102.758zM58.059 106.051c2.098 6.823 8.458 11.799 15.96 11.799 7.502 0 13.862-4.975 15.96-11.799l1.153 0.415c0.728 0.262 1.313 0.823 1.607 1.54 0.284 0.694 0.266 1.44-0.052 2.101-3.438 7.154-10.504 11.599-18.439 11.599-0.079 0-0.153 0.016-0.229 0.023-0.077-0.007-0.151-0.023-0.229-0.023-7.936 0-15.001-4.444-18.439-11.599-0.317-0.66-0.336-1.406-0.052-2.1 0.294-0.718 0.88-1.279 1.608-1.541L58.059 106.051zM92.823 137.768c0 1.002-0.815 1.817-1.818 1.817-1.002 0-1.817-0.815-1.817-1.817 0-1.003 0.815-1.818 1.817-1.818C92.008 135.95 92.823 136.765 92.823 137.768zM58.852 137.768c0 1.002-0.815 1.817-1.817 1.817-1.003 0-1.818-0.815-1.818-1.817 0-1.003 0.815-1.818 1.818-1.818C58.036 135.95 58.852 136.765 58.852 137.768zM105.987 108.961v0.257c0 1.541 1.008 2.901 2.482 3.349l5.112 1.553c5.099 1.549 8.523 6.168 8.523 11.496v22.215H25.934v-22.215c0-5.328 3.425-9.947 8.523-11.496l5.112-1.553c1.475-0.447 2.483-1.808 2.483-3.349v-0.257c0-6.822 5.551-12.373 12.374-12.373h1.897v4.773l-1.109 0.399c-2.058 0.74-3.713 2.326-4.542 4.351-0.815 1.99-0.752 4.236 0.173 6.161 0.996 2.073 2.247 3.955 3.689 5.635v13.523c-2.525 1-4.318 3.461-4.318 6.337 0 3.759 3.059 6.817 6.818 6.817 3.759 0 6.817-3.059 6.817-6.817 0-2.876-1.793-5.337-4.317-6.337v-9.069c4.112 2.78 9.028 4.343 14.256 4.343 0.079 0 0.153-0.016 0.229-0.023 0.077 0.007 0.151 0.023 0.229 0.023 5.228 0 10.144-1.563 14.256-4.343v9.069c-2.524 1-4.317 3.461-4.317 6.337 0 3.759 3.059 6.817 6.817 6.817 3.76 0 6.818-3.059 6.818-6.817 0-2.877-1.793-5.337-4.318-6.337v-13.523c1.443-1.68 2.693-3.562 3.689-5.635 0.925-1.925 0.988-4.17 0.173-6.161-0.829-2.024-2.484-3.61-4.541-4.351l-1.11-0.4v-4.772h1.898C100.437 96.588 105.987 102.139 105.987 108.961z" fill="black"></path><path d="M132.672 20.559h-30.84c-4.629 0-8.395 3.766-8.395 8.395v30.839c0 4.629 3.766 8.395 8.395 8.395h6.6v11.024c0 1.02 0.619 1.938 1.565 2.318 0.303 0.122 0.62 0.182 0.934 0.182 0.667 0 1.321-0.267 1.803-0.767l12.276-12.757h7.662c4.629 0 8.395-3.766 8.395-8.395V28.954C141.066 24.325 137.301 20.559 132.672 20.559zM136.066 59.793c0 1.872-1.522 3.395-3.395 3.395h-8.726c-0.68 0-1.33 0.277-1.802 0.767l-8.713 9.054v-7.321c0-1.381-1.119-2.5-2.5-2.5h-9.1c-1.872 0-3.395-1.523-3.395-3.395V28.954c0-1.872 1.522-3.395 3.395-3.395h30.84c1.872 0 3.395 1.523 3.395 3.395V59.793z" fill="black"></path><path d="M110.426 40.456c1.062-0.882 1.208-2.458 0.325-3.521-0.883-1.064-2.461-1.208-3.521-0.325l-6.47 5.375c-0.571 0.475-0.902 1.18-0.902 1.923s0.331 1.448 0.902 1.923l6.47 5.375c0.467 0.388 1.033 0.577 1.597 0.577 0.717 0 1.43-0.307 1.924-0.902 0.883-1.062 0.736-2.638-0.325-3.521l-4.155-3.452L110.426 40.456z" fill="black"></path><path d="M126.551 36.61c-1.061-0.881-2.638-0.738-3.521 0.325-0.883 1.062-0.736 2.638 0.325 3.521l4.155 3.452-4.155 3.452c-1.062 0.882-1.208 2.458-0.325 3.521 0.494 0.595 1.207 0.902 1.924 0.902 0.563 0 1.13-0.189 1.597-0.577l6.47-5.375c0.571-0.475 0.902-1.18 0.902-1.923s-0.331-1.448-0.902-1.923L126.551 36.61z" fill="black"></path><path d="M120.032 34.517c-1.308-0.439-2.726 0.269-3.164 1.577l-4.698 14.042c-0.438 1.31 0.269 2.726 1.578 3.164 0.263 0.088 0.53 0.13 0.793 0.13 1.046 0 2.021-0.661 2.371-1.707l4.698-14.042C122.048 36.371 121.342 34.955 120.032 34.517z" fill="black"></path></svg></g></svg></g><g></g></svg></g></svg></g></svg></g></svg></g><defs><mask></mask></defs></svg><rect width="320" height="360" fill="black" stroke="none" visibility="hidden"></rect></g></mask></svg><rect width="320" height="360" fill="black" stroke="none" visibility="hidden"></rect></g></mask></svg><rect width="320" height="360" fill="black" stroke="none" visibility="hidden"></rect></g></mask><linearGradient x1="0" x2="1" y1="0.548" y2="0.55" id="3ebf1878-a75e-4915-90bd-15c9af6e6db3"><stop stop-color="#ff6cab" offset="0"></stop><stop stop-color="#7366ff" offset="1"></stop></linearGradient></svg><rect width="320" height="360" fill="none" stroke="none" visibility="hidden"></rect></g></svg></g></svg>